<svg clip-rule="evenodd" fill-rule="evenodd" stroke-linejoin="round" stroke-miterlimit="2" viewBox="0 .01 338.14 228.84" xmlns="http://www.w3.org/2000/svg"><g fill="#1a171b" fill-rule="nonzero"><path d="m0 10.006c-1.183-5.264-5.524-9.198-10.982-9.907-3.031-.394-6.355.15-10.028-.24-.723-.92-.487-2.118-1.193-2.864-1.098-1.163-3.29-.888-4.06.358-.447.728-.099 1.887-.954 2.506-2.389.197-5.609.202-7.997 0-.305-.809.051-2.28-.24-3.103-.891-1.203-2.873-.58-3.103-2.269-.369-2.704 2.911-2.099 5.294-2.142.26.071.525.119.791.119.795 0 1.588-.313 2.178-.937l7.585-8h18.54c1.657 0 3-1.342 3-3 0-1.657-1.343-3-3-3h-19.83c-.823 0-1.61.339-2.177.937l-7.196 7.591c-1.989-.188-4.612.077-6.737.077-4.709 0-10.54-1.086-11.221 2.268-.374 1.848.594 3.118 1.433 3.581 1.459.805 5.267-.225 6.566.596.552.352 1.042 1.506.596 2.508-.415.933-2.373.88-2.745 1.432-.523.774-.011 2.508-.359 3.462-2.668-.078-5.647.157-8.117-.12-.682-.74-.398-1.786-.836-2.506-.766-1.262-2.805-1.41-3.82-.597-.963.772-.662 2.198-1.551 3.223-3.348.175-6.338-.279-9.312.12-5.747.767-10.694 5.627-11.1 11.697-.414 6.165.304 13.187 0 20.413 5.838.091 12.222.27 17.905.119v-6.684c0-2.679-.858-8.259 2.149-7.639 1.073.22 1.001 2.614 1.79 3.342.63.58 1.65.692 2.268.597 1.993-.312 1.739-2.465 2.626-3.82 6.486-.218 13.592-.119 20.293-.119 1.82 0 5.793-.416 6.565.357.294.294.271.704.359 1.075.103.439.159.659.357 1.074.67 1.399 2.717 1.941 3.941.836 1.034-.936.52-3.043 1.79-3.342 1.316-.311 2.467.817 2.746 1.79.486 1.696.119 4.049.119 6.088v6.326c5.875.172 11.99.107 17.906.239.217-3.601.119-7.541.119-11.34 0-3.97.352-7.948-.358-11.102" transform="matrix(4.16667 0 0 4.16667 336.28070034 93.64566101)"/><path d="m0 4h7.434c1.104 0 2-.896 2-2s-.896-2-2-2h-7.434c-1.104 0-2 .896-2 2s.896 2 2 2" transform="matrix(4.16667 0 0 4.16667 149.6472177 13.32893009)"/></g></svg>