<svg xmlns="http://www.w3.org/2000/svg" viewBox="0 0 279.36 279.35" fill-rule="evenodd" clip-rule="evenodd" stroke-linejoin="round" stroke-miterlimit="2"><path d="M279.362 139.673c0-77.141-62.542-139.675-139.684-139.675C62.537-.002 0 62.532 0 139.673c0 77.146 62.538 139.68 139.68 139.68 77.141 0 139.683-62.534 139.683-139.68" fill="rgb(26,23,27)"/><path d="M96.645 141.11c0-10.503-8.512-19.02-19.02-19.02-10.505 0-19.022 8.517-19.022 19.02 0 10.505 8.517 19.022 19.021 19.022 10.509 0 19.021-8.517 19.021-19.021" fill="white"/><path d="M161.004 141.11c0-10.503-8.517-19.02-19.013-19.02-10.517 0-19.03 8.517-19.03 19.02 0 10.505 8.513 19.022 19.03 19.022 10.496 0 19.013-8.517 19.013-19.021" fill="white"/><path d="M225.362 141.11c0-10.503-8.517-19.02-19.021-19.02-10.508 0-19.02 8.517-19.02 19.02 0 10.505 8.512 19.022 19.02 19.022 10.504 0 19.02-8.517 19.02-19.021" fill="white"/></svg>