<svg xmlns="http://www.w3.org/2000/svg" viewBox="0 0.01 407.98 291.02" fill-rule="evenodd" clip-rule="evenodd" stroke-linejoin="round" stroke-miterlimit="2"><path d="M222.724 116.54h-37.762c-3.367-17.871 2.875-39.65-1.888-55.38-4.596-15.187-20.596-26.529-40.275-21.395-9.154 2.383-19.27 11.654-22.03 21.396-2.39 8.47-1.253 20.845-1.253 32.72 0 30.575 1.875 71.576 0 100.063-1.48 22.404-15.663 38.183-32.096 46.57-9.675 4.934-23.609 7.888-40.909 6.293v-38.388c16.984 1.388 29.092-.846 33.359-12.587 2.896-7.98 1.254-20.655 1.254-30.838 0-31.675-1.596-65.188 0-96.283 1.462-28.488 16.592-48.792 36.504-59.784 7.254-4 18.654-8.191 30.2-8.808 15.709-.846 29.509 3.104 40.275 9.437 17.23 10.134 32.796 29.78 34.621 54.75 1.13 15.617-.83 32.142 0 52.234" fill="rgb(26,23,27)"/><path d="M378.787 32.215c3.212-1.104 24.779-2.784 27.691 3.146 2.584 5.262.63 20.837.63 28.945 0 7.313 2.637 21.842-1.263 27.692-2.88 4.33-26.333 5.883-30.833.63-3.371-3.926-1.888-17.892-1.888-28.95 0-14.276-2.875-28.538 5.663-31.463" fill="rgb(26,23,27)"/><path d="M361.17 44.169c-.408 12.596.82 26.837-.625 38.387-16.954-1.687-29.292 1.496-33.358 12.588-2.946 8.042-1.255 21.63-1.255 32.096v33.35c0 23.254 1.65 46.167 0 66.08-1.612 19.257-11.45 34.753-22.658 45.307-12.92 12.171-33.754 21.963-58.525 18.255-28.275-4.242-53.446-26.488-59.158-55.38-3.492-17.679.008-37.233-1.25-60.416h38.383c.708 30.85-4.4 55.625 10.696 69.225 7.404 6.67 20.483 11.52 33.983 6.296 8.317-3.225 16.196-11.096 18.88-20.142 2.433-8.196 1.254-20.23 1.254-32.092V164.37c0-22.52-1.717-45.43 0-66.708 2.27-28.005 24.804-50.505 50.35-53.492 7.6-.888 16.633.675 23.283 0" fill="rgb(26,23,27)"/><path d="M230.903 129.127c5.85 1.03 5.992 26.934 2.517 30.838-4.446 4.992-22.667 2.517-30.208 2.517-8.88 0-25.655 1.854-29.575-2.517-2.875-3.204-3.859-21.313-1.263-27.063 1.22-2.683 4.32-4.091 6.925-4.404 14.542-1.746 37.02.842 51.604.63" fill="rgb(26,23,27)"/><path d="M33.928 255.62a12.689 12.689 0 0 0-3.775 3.774c-9.058-.562-22.558 3.92-27.696-1.887-4.029-4.559-1.887-17.7-1.887-27.063v-28.946c4.287-7.508 28.108-9.046 32.725-1.258 3.425 5.767 1.258 18.442 1.258 27.687 0 10.05.417 19.909-.625 27.692" fill="rgb(26,23,27)"/></svg>