<svg clip-rule="evenodd" fill-rule="evenodd" stroke-linejoin="round" stroke-miterlimit="2" viewBox=".01 0 264.6 308.83" xmlns="http://www.w3.org/2000/svg"><g fill="#1a171b" fill-rule="nonzero"><path d="m0 2.903c-.8 0-1.451-.651-1.451-1.451s.651-1.452 1.451-1.452 1.451.652 1.451 1.452-.651 1.451-1.451 1.451m3.451-1.451c0-1.903-1.548-3.452-3.451-3.452s-3.451 1.549-3.451 3.452 1.548 3.451 3.451 3.451 3.451-1.548 3.451-3.451" transform="matrix(4.16667 0 0 4.16667 38.8487072 139.43208752)"/><path d="m0 40.226c-5.28 0-3.361 3.839-3.361 3.839-2.165.565-2.954 1.907-3.125 3.328-.027-.021-.046-.042-.073-.063-2.282-1.83-3.87-1.2-4.769-.421-3.469-3.467-6.12-7.85-7.568-12.648-.76-2.527-1.29-12.931-1.453-28.545-.004-.368-.006-.738-.01-1.107.699-.425 2.218-.939 4.468.468 1.963 1.226 3.559 1.686 4.847 1.686 1.7 0 2.866-.799 3.64-1.693.569-.657 3.084-1.697 4.764-1.402.791.14.933.51.986.65l.029-.011c-.02 4.228-.086 8.791-.2 13.8-.21 9.181 1.145 14.972 4.266 18.223.559.582 1.18 1.067 1.847 1.475-3.472-.216-4.288 2.421-4.288 2.421m41.038-44.189c0-4.379.353-8.799-.438-12.983l-1.777.004s.364 5.692.309 9.64c-.018 1.237-.032 2.405-.032 3.339 0 .638.014 1.699.035 3.168.053 3.738.146 10.425.049 17.047-.497.343-1.332.685-2.646.516-.481-.062-2.002-1.799-3.601-1.5-1.601.298-3.036 1.68-3.498 1.828-1.819.587-3.35-.244-4.182-.088-1.196.224-1.778 1.261-3.063 1.037-.573-.1-1.055-.203-1.378-.277-.411-6.449-.282-11.792-.145-17.447.075-3.063.151-6.232.151-9.777 0-.168.003-.394.006-.651.005-.694.014-1.557-.007-2.252-.06-2.153-.181-4.54-.181-4.54l-1.536.003c-.374.689-.259 3.209-.221 4.591.026.924 0 2.245 0 2.849 0 10.186-.641 17.372 0 27.389.937 14.639-2.742 19.356-9.134 19.356-.078 0-.159 0-.239-.001-6.392-.115-9.709-5.508-9.397-19.137.235-10.242.318-20.347 0-30.018-.015-.491-.014-3.966-.359-5.007l-1.918.005s.304 1.146.331 4.324c.002.393.005.659.009.742.138 4.211.207 8.717.205 13.696-.214-.078-.431-.152-.673-.195-2.258-.402-5.531.8-6.625 2.063-1.233 1.428-3.224 1.3-5.913-.38-2.232-1.395-4.164-1.392-5.544-.943-.054-9.872.095-19.265.095-19.265l-1.665.004-.117.129c-.395 4.03-.646 45.03 1.31 51.514 3.682 12.218 14.573 22.352 29.98 22.352.158 0 .317-.001.475-.003 15.579-.21 26.554-10.518 30.02-22.788 2.053-7.269 1.314-34.009 1.314-38.344" transform="matrix(4.16667 0 0 4.16667 93.07375058 70.60703246)"/><path d="m0-3.508c.97 0 1.754.785 1.754 1.754s-.784 1.754-1.754 1.754c-.969 0-1.754-.785-1.754-1.754s.785-1.754 1.754-1.754" transform="matrix(-4.16667 0 0 4.16667 66.00289559 177.14045102)"/><path d="m-.003-4.902c1.355 0 2.453 1.097 2.453 2.451s-1.098 2.451-2.453 2.451c-1.353 0-2.45-1.097-2.45-2.451s1.097-2.451 2.45-2.451" transform="matrix(-4.16667 0 0 4.16667 49.34038226 213.67798025)"/></g></svg>