<svg xmlns="http://www.w3.org/2000/svg" viewBox="0.01 0 215.35 299.5" fill-rule="evenodd" clip-rule="evenodd" stroke-linejoin="round" stroke-miterlimit="2"><path d="M134.763 217.352c8.704-.2 19.72-7.55 17.1-21.912-1.604-8.721-11.042-14.98-21.046-13.146-20.3 3.72-17.896 35.537 3.946 35.058m-9.638-156.875c-2.845 4.458-5.537 8.02-6.575 9.633-3.629 5.659-9.929 14.092-12.266 20.596-7.35 20.409 10.046 39.925 32.425 37.246 13.583-1.63 25.529-13.262 25.416-28.48-.075-9.72-4.262-13.603-8.766-20.6-6.3-9.77-6.48-11.04-12.263-20.153-2.041-3.209-5.187-8.167-9.65-7.446-4.783.775-6.425 6.22-8.32 9.204M54.133.002H214.95v206.392c0 4.946.913 10.862 0 13.583-1.162 3.508-12.045 7.863-16.645 10.08-17.709 8.52-39.221 14.895-63.98 14.895-34.77 0-60.208-11.067-80.62-24.542V1.31c-.046-.616-.08-1.233.429-1.308" fill="rgb(26,23,27)"/><path d="M134.763 67.923c2.55 4.375 5.458 8.683 8.333 13.146 4.542 7.07 14.013 17.225 6.567 28.041-8.563 12.442-33.9 7.605-33.742-9.637.059-6.625 5.55-11.78 8.763-16.646 3.591-5.442 5.837-10.917 10.079-14.904" fill="rgb(26,23,27)"/><path d="M133.013 194.131c9.725-2.146 9.087 11.825 1.308 11.825-5.633 0-9.375-10.058-1.308-11.825" fill="rgb(26,23,27)"/><path fill="rgb(226,0,26)" transform="scale(-4.16667 4.16667) rotate(89.997 -39.014 .04)" d="M-38.972 -38.97H32.827999999999996V-32.83H-38.972z"/></svg>