<svg xmlns="http://www.w3.org/2000/svg" viewBox="0.01 0 161.68 299.5" fill-rule="evenodd" clip-rule="evenodd" stroke-linejoin="round" stroke-miterlimit="2"><path d="M81.088 217.352c8.705-.2 19.721-7.55 17.1-21.912-1.604-8.721-11.041-14.98-21.045-13.146-20.3 3.72-17.896 35.537 3.945 35.058M71.451 60.477c-2.846 4.458-5.538 8.02-6.575 9.633-3.63 5.659-9.93 14.092-12.267 20.596-7.35 20.409 10.046 39.925 32.425 37.246 13.584-1.63 25.53-13.262 25.417-28.48-.075-9.72-4.263-13.603-8.767-20.6-6.3-9.77-6.479-11.04-12.262-20.153-2.042-3.209-5.188-8.167-9.65-7.446-4.784.775-6.425 6.22-8.321 9.204M.459.002h160.817v206.392c0 4.946.912 10.862 0 13.583-1.163 3.508-12.046 7.863-16.646 10.08-17.708 8.52-39.22 14.895-63.98 14.895-34.77 0-60.208-11.067-80.62-24.542V1.31C-.016.694-.05.077.46.002" fill="rgb(26,23,27)"/><path d="M81.088 67.923c2.55 4.375 5.459 8.683 8.334 13.146 4.541 7.07 14.012 17.225 6.566 28.041-8.562 12.442-33.9 7.605-33.741-9.637.058-6.625 5.55-11.78 8.762-16.646 3.592-5.442 5.838-10.917 10.08-14.904" fill="rgb(26,23,27)"/><path d="M79.338 194.131c9.725-2.146 9.088 11.825 1.309 11.825-5.634 0-9.375-10.058-1.309-11.825" fill="rgb(26,23,27)"/><path fill="rgb(226,0,26)" transform="matrix(-4.16667 0 0 4.16667 2220.19 -3022.73)" d="M494.042 791.195H532.838V797.335H494.042z"/></svg>