<svg xmlns="http://www.w3.org/2000/svg" viewBox="0 0.01 229.92 305.35" fill-rule="evenodd" clip-rule="evenodd" stroke-linejoin="round" stroke-miterlimit="2"><path d="M61.14 304.66c-19.171-1.687-48.667 5.163-57.209-7.9-4.054-6.17-3.3-19.304-3.3-32.875V47.506c0-12.304-1.791-26.358.659-34.854C5.59-2.223 21.294.156 40.76.156h152.572c18.058 0 29.662-2.304 34.87 11.175 2.83 7.346 1.309 22.783 1.309 34.863v215.058c0 19.883 2.066 35.563-9.871 41.433-12.346 6.067-33.208-.445-49.975 1.975H61.14z" fill="rgb(26,23,27)"/><path d="M105.732 52.923c-2.846 4.458-5.534 8.025-6.571 9.637-3.63 5.654-9.934 14.088-12.267 20.596-7.35 20.404 10.046 39.925 32.425 37.242 13.583-1.625 25.53-13.258 25.413-28.48-.071-9.72-4.259-13.6-8.763-20.6-6.304-9.77-6.483-11.037-12.267-20.154-2.041-3.204-5.187-8.166-9.65-7.445-4.779.779-6.425 6.22-8.32 9.204" fill="white"/><path d="M115.373 60.369c2.55 4.375 5.459 8.683 8.334 13.145 4.541 7.071 14.012 17.225 6.566 28.042-8.562 12.442-33.9 7.604-33.741-9.637.058-6.625 5.55-11.78 8.762-16.646 3.592-5.442 5.838-10.917 10.08-14.904" fill="rgb(26,23,27)"/><path d="M112.415 210.881c18.883-4.166 17.642 22.959 2.542 22.959-10.942 0-18.205-19.534-2.542-22.959" fill="white"/><path d="M163.382 247.715c12.72-.292 28.812-11.025 24.979-32.013-2.338-12.737-16.125-21.883-30.746-19.208-29.658 5.433-26.142 51.92 5.767 51.22" fill="white"/><path d="M160.827 213.785c14.209-3.133 13.275 17.275 1.913 17.275-8.233 0-13.696-14.695-1.913-17.275" fill="rgb(26,23,27)"/><path d="M66.719 247.715c12.717-.292 28.813-11.03 24.98-32.017-2.338-12.738-16.126-21.883-30.747-19.204-29.658 5.433-26.141 51.92 5.767 51.22" fill="white"/><path d="M64.165 213.785c14.208-3.133 13.279 17.28 1.917 17.28-8.238 0-13.7-14.696-1.917-17.28" fill="rgb(26,23,27)"/></svg>