<svg xmlns="http://www.w3.org/2000/svg" viewBox="0 0 265.96 303.15" fill-rule="evenodd" clip-rule="evenodd" stroke-linejoin="round" stroke-miterlimit="2">
    <path d="M144.533 48.758c-33.817.78-70.904.78-104.717 0-1.429-.345-.266-2.954 0-4.675C43.383 21.025 63.304 1.954 87.966.142c16.096-1.188 30.259 5.237 39.271 13.554 9.304 8.587 15.613 20.125 17.296 35.062" fill="rgb(26,22,25)"/>
    <path d="M49.164 58.11h86.021c-2.988 5.625-9.313 10.008-15.896 13.554-8.637 4.65-18.27 8.042-31.787 7.016-16.667-1.266-29.438-9.795-37.871-19.17-.246-.375-.484-.759-.467-1.4" fill="rgb(26,22,25)"/>
    <path d="M144.533 63.252c3.292 36.3-19.075 60.554-47.217 63.108-17.016 1.546-31.083-4.487-40.675-13.091-12.37-11.1-18.616-25.78-17.762-50.017.416-.288.837-.567.937 0 10.88 13.425 30.325 24.846 52.359 24.775 18.716-.058 36.254-8.692 47.216-20.1 1.571-1.638 2.7-4.438 5.142-4.675" fill="rgb(26,22,25)"/>
    <path d="M242.239 138.05c-.863 3.14-3.958 4.962-6.08 7.012-6.316 6.116-13.037 12.704-19.633 19.166 5.63 7.771 13.192 13.609 19.167 21.038 6.838-6.663 13.663-13.192 20.567-20.104 2.096-2.092 3.85-5.238 7.017-6.075 12.212 29.087-19.6 60.137-48.621 47.683-21.755 20.22-44.959 44.492-67.317 66.85-3.93 3.925-8.27 9.608-14.496 9.82-8.275.276-16.917-8.207-14.02-18.233 1.028-3.57 5.837-7.625 8.883-10.754 21.279-21.887 46.754-47.304 66.85-67.787-10.846-31.234 15.029-59.175 47.683-48.617" fill="rgb(26,22,25)"/>
    <path d="M58.982 137.113c1.092 32.104.155 66.23.467 99.108 20.258 1.092 42.542.155 63.58.467v-99.575c8.262 2.025 15.074 5.492 22.441 8.417v55.162c0 6.059 1.22 13.325 0 18.234-.492 1.97-2.442 3.358-4.68 5.608-4.533 4.575-10.22 10.73-14.49 14.958-8.376 8.304-19.934 15.092-20.1 28.984-.2 16.3 17.395 31.583 35.524 23.845 8.033-3.429 14.996-12.191 21.513-18.7 5.904-5.912 10.762-12.52 17.291-17.762.242-.2 1.73-2.18 2.338-.47v47.216c-59.996 1.092-122.013.158-182.788.466.309-21.97-.62-45.187.471-66.383h36.463V145.53c7.004-2.813 15.52-6.6 21.97-8.417" fill="rgb(26,22,25)"/>
    <path d="M68.801 145.06c4.617 4.1 11.53 14.195 16.825 21.037 1.088 1.4 4.725 6.533 5.142 6.546 1.312.042 4.412-5.492 5.612-7.013 5.434-6.858 11.692-14.45 17.3-20.57-.312 27.429.621 56.1-.47 82.746H69.267c-1.088-26.646-.159-55.317-.467-82.746" fill="rgb(26,22,25)"/>
    <path d="M27.195 149.27c.38.087.463.47.934.466v77.604c-8.288 1.058-18.525.175-27.584.467-1.087-22.13-.158-46.28-.466-69.188 9.095-3.058 18.141-6.17 27.116-9.35" fill="rgb(26,22,25)"/>
    <path d="M154.817 149.27c9.5 2.807 18.414 6.206 27.582 9.348-2.167 7.06-2.367 17.144-.934 25.245-8.602 8.851-17.297 17.61-26.183 26.176-1.083-19.321-.155-40.67-.465-60.77" fill="rgb(26,22,25)"/>
</svg>