<svg xmlns="http://www.w3.org/2000/svg" viewBox="0 -0.01 267.01 322.36" fill-rule="evenodd" clip-rule="evenodd" stroke-linejoin="round" stroke-miterlimit="2"><path d="M44.314 196.39c-3.604-6.034-7.396-12.63-11.05-17.088-.954-.013-.612.946-1.012 1.508-5.596 7.98-19.471 24.571-19.092 37.188.775 25.696 42.288 24.525 39.7-3.017-.646-6.854-5.104-12.837-8.546-18.592" fill="rgb(26,23,27)" fill-rule="nonzero"/><path d="M136.273 195.881c-3.621-5.996-6.925-12.258-11.554-16.579-3.275 5.796-7.58 10.82-11.063 16.58-2.87 4.753-7.183 11.837-8.038 18.09-1.391 10.188 3.571 16.76 9.046 20.1 14.3 8.726 32.888-2.89 30.146-20.603-.887-5.755-5.404-12.38-8.537-17.588" fill="rgb(26,23,27)" fill-rule="nonzero"/><path d="M79.99 229.052h-1c-.309.03-.605.075-.505.504a192.905 192.905 0 0 0-11.054 16.58c-3.67 6.162-9.367 14.516-8.046 23.62 3.333 22.921 40.738 21.104 39.696-4.02-.3-7.334-4.783-14.05-8.033-19.6-3.555-6.059-7.634-11.321-11.059-17.084" fill="rgb(26,23,27)" fill-rule="nonzero"/><path d="M262.381 60.202s-.617-6.804-1.658-10.525c-1.042-3.725-5.754-9.954-7.43-12.346C233.644 9.223 223.807 3.423 155.103.118c-24.03-1.166-44.309 5.826-60.33 20.75-20.208 18.826-27.82 45.317-29.95 59.492-19.162 3.509-34.104 12.988-44.629 25.05-11.92 13.667-21.241 32.575-20.1 58.788 51.596.837 106.696.833 158.292 0 .896-26.33-8.112-45.013-20.1-58.788-10.45-12.012-25.92-21.675-44.22-25.129-1.192-.22-2.463-.287-3.722-.45 2.267-10.512 8.171-28.275 21.471-40.67 6.959-6.48 15.271-10.705 24.78-12.73 13.129-.696 27.812.083 40.379.083.587 0 1.125.025 1.7.03 8.575.65 15.412 1.4 20.996 2.354 4.67 1.191 8.837 2.858 12.475 5.158 12.37 7.804 23.3 22.692 24.629 42.204 1.35 19.871 0 40.675 0 61.304v184.417c3.433.821 30.229.017 30.229.017.087-59.371-2.2-241.917-4.62-261.796" fill="rgb(26,23,27)" fill-rule="nonzero"/></svg>