<svg clip-rule="evenodd" fill-rule="evenodd" stroke-linejoin="round" stroke-miterlimit="2" viewBox="0 0 339.35 339.12" xmlns="http://www.w3.org/2000/svg"><g fill="#1a171b"><path d="m0-71.403c.22.875.075 1.877.12 2.992.073 1.868-.174 4.45.359 5.505.228.455 1.875 1.53 2.631 1.556.979.034 3.01-1.455 3.832-1.914.549-.309 1.172-.741 1.795-1.078.666-.361 1.522-.853 1.913-.838.681.027 1.244.855 1.676 1.317.645.686.909 1.028 1.437 1.556.792.792 2.694 2.013 2.754 3.111.05.963-1.421 2.621-2.036 3.71-.325.575-.6 1.319-.958 1.915-.444.743-.949 1.183-.957 1.795-.014 1.044 1.004 1.899 1.557 2.873 2.506.686 6.26.123 8.616.957.36 1.168.644 2.421.957 3.83.278 1.247.975 3.018.72 3.95-.231.834-2.988 2.03-3.712 2.393-.984.495-3.384 1.151-3.83 2.154-.3.68-.302 2.651-.119 3.232.29.926 2.466 2.217 3.351 2.872.582.43 3.168 1.872 3.352 2.753.184.889-.91 2.816-1.198 3.59-.484 1.308-.675 2.231-1.197 3.471-4.339-3.959-8.381-8.214-12.447-12.446 1.214-8.589-2.164-15.703-6.583-19.748-3.768-3.45-8.961-5.963-15.079-5.985-8.975-.031-16.258 5.355-19.628 11.969-1.723 3.382-3.058 7.851-2.273 13.285.754 5.219 3.11 9.236 6.702 12.685 3.917 3.765 9.134 6.684 17.233 6.104.632-.044 1.412-.479 2.155-.358.857.14 2.722 2.364 3.351 2.992.586.586 1.071 1.192 1.556 1.675.508.508 1.238.879 1.436 1.676-.901.176-1.632.523-2.154 1.077-.349 1.966-.848 4.099-1.317 6.224-.371 1.685-.38 1.887-2.274 2.153-1.569.222-3.538.442-5.504.36-.921-.974-1.162-2.532-1.676-4.07-.451-1.341-.832-3.477-1.557-4.068-.46-.376-1.357-.414-2.153-.599-.943-.218-1.699-.551-2.275-.479-1.102.138-2.385 1.886-3.35 2.872-.975.995-2.269 2.905-3.113 2.993-.92.094-2.436-1.275-3.351-1.796-1.075-.612-2.797-1.014-3.112-2.034-.285-.923.527-2.67.839-3.949.336-1.383 1.048-3.141.956-3.95-.085-.756-1.141-1.707-1.554-2.154-.545-.59-1.286-1.539-2.036-1.676-.853-.156-2.623.404-4.068.718-1.08.234-2.846 1.091-3.831.838-.812-.209-1.64-2.344-2.033-3.112-.237-.46-.53-1.081-.839-1.675-.325-.626-.75-1.283-.719-1.796.071-1.157 1.864-2.126 2.993-3.231.447-.437.988-1.027 1.556-1.556.603-.56 1.342-1.134 1.437-1.675.099-.58-.23-1.424-.361-2.155-.11-.615-.304-1.293-.359-2.034-1.064-.801-2.462-1.298-3.829-1.796-1.385-.502-2.871-.871-4.189-1.436.027-2.845.323-5.422.837-7.779 1.768-.742 4.052-1.058 6.105-1.435.767-.143 1.58-.108 2.034-.36.573-.318.782-1.084 1.078-1.795.296-.714.76-1.369.718-2.155-.037-.695-.554-1.239-1.078-1.915-.865-1.118-1.623-2.032-2.513-3.231-.435-.585-1.064-1.379-1.076-1.795-.036-1.036 1.84-2.656 2.392-3.352.401-.504 1.788-2.873 2.633-2.992.755-.105 2.984 1.208 3.83 1.556.58.239 1.267.572 1.916.838 1.799.739 2.454.695 3.949-.359.631-.446 1.108-.717 1.317-1.436.332-1.147-.137-2.67-.24-4.069-.097-1.308-.294-2.602-.119-4.07 1.657-.869 3.525-1.458 5.506-2.154.674-.238 1.522-.567 2.034-.479.907.158 2.195 2.659 2.752 3.472.368.533.869 1.141 1.316 1.795.456.667.796 1.476 1.317 1.675.449.17 1.958.275 2.871 0 .998-.299 1.66-2.416 2.275-3.59.817-1.558 1.442-2.566 2.155-3.71.065-.139.264-.249.477-.24 2.288.105 5.92 1.326 7.901 2.035" transform="matrix(4.16667 0 0 4.16667 209.94754074 305.99590167)"/><path d="m0-37.33c.902.141 1.361 1.001 1.916 1.556.558.558 1.193 1.074 1.795 1.675 1.269 1.269 2.316 3.18 4.786 2.993 1.565-.119 2.418-1.075 3.353-2.035 1.159-1.191 2.676-2.375 2.393-4.548-.44-3.364-5.363-5.18-6.463-8.018 7.852-2.758 15.615 2.605 16.398 9.814.221 2.042-.277 3.812.118 5.744.415 2.032 1.983 3.538 3.232 4.787 8.023 8.024 15.762 15.883 23.698 23.817 1.277 1.278 3.096 2.82 3.588 4.308 1.386 4.188-2.229 8.372-6.702 7.062-1.546-.453-3.063-2.107-4.427-3.471-7.996-7.995-15.178-15.416-23.219-23.458-1.939-1.939-3.378-4.028-6.223-4.428-1.561-.219-3.267.137-4.668-.12-3.475-.638-6.306-2.722-8.018-5.265-1.675-2.489-2.972-6.278-1.557-10.413" transform="matrix(4.16667 0 0 4.16667 109.70579388 297.16672794)"/></g></svg>