<svg clip-rule="evenodd" fill-rule="evenodd" stroke-linejoin="round" stroke-miterlimit="2" viewBox="0 0 301.45 301.65" xmlns="http://www.w3.org/2000/svg"><path d="m0-27.559c3.539-.521 5.073.963 4.527 4.526h47.294c2.233 0 5.197-.248 6.076.596 1.231 1.181.714 5.161.714 7.624 0 3.18-.126 5.426-.952 7.387-1.579 3.744-4.93 6.642-9.649 7.028-6.144.503-12.403-.377-18.584 0 .244 3.224-.876 5.081-4.528 4.408-.216 1.728-.119 3.543-.119 5.361 0 1.806-.273 3.802.119 5.242.961 3.525 7.532 4.142 8.696.238.695-2.332-.129-4.373.358-6.076 1.015-3.545 4.646-5.4 9.769-4.765 2.742.34 5.153 2.642 5.717 5.242.398 1.827.121 4.813.121 7.505 0 2.672.23 5.258-2.146 5.361-4.835.208-.708-10.329-2.977-12.866-.51-.569-3.796-1.475-5.361-.239-1.393 1.102-.442 4.1-.954 6.315-1.139 4.924-6.119 7.584-10.959 6.671-3.215-.607-6.424-3.521-6.91-7.148-.473-3.519.353-6.987 0-10.722-3.298.281-5.192-.844-4.526-4.527-6.279-.297-12.881.4-18.466 0-4.283-.307-7.391-2.567-9.054-5.241-.675-1.087-1.42-2.803-1.668-4.408-.284-1.851-.118-4.133-.118-6.672 0-1.986-.297-4.928.834-5.837.773-.622 2.004-.454 3.573-.477-.228-3.286.97-5.145 4.646-4.526.372-5.717-.557-12.207.119-16.678.48-3.176 2.858-5.527 6.314-5.838 2.05-.183 5.142 0 8.221 0 3.345 0 6.764-.396 9.291.12 2.705.551 4.967 2.875 5.361 5.599.158 1.088.031 2.748 0 4.765-.028 1.846-.401 3.46-2.74 3.097-1.662-.258-1.787-1.532-1.787-3.455 0-1.792.287-3.936-.715-4.883-1.256-1.191-6.24-.596-8.815-.596h-4.765c-2.004 0-4.789-.375-5.6.953-.855 1.4-.357 6.147-.357 8.338z" fill="#1a171b" transform="matrix(4.16667 0 0 4.16667 56.78592298 209.25222372)"/></svg>