<svg xmlns="http://www.w3.org/2000/svg" viewBox="0 0 208.74 302.39" fill-rule="evenodd" clip-rule="evenodd" stroke-linejoin="round" stroke-miterlimit="2"><path d="M80.401 117.49c-13.387 15.162-26.875 34.72-40.63 51.4 5.288 4.012 12.08 6.52 18.113 9.791-5.045 9.313-12.083 16.634-18.112 24.963-8.22-7.708-13.583-18.02-17.62-29.858-4.205-12.317-5.388-24.138-5.388-42.1v-94.48H.609C-.203 25.911-.203 11.294.61.002h127.763v37.204h-15.667c-.87 10.838-.483 25.167-.483 39.65 0 17.146-2.5 36.463 1.954 47.488 2.95 7.296 10.28 14.754 19.583 16.154 11.746 1.767 24.463-1.33 37.696 0v-15.667c11.267-1.133 24.634-.166 36.709-.487 1.146 41.608.166 85.337.491 127.767-11.275.812-25.933.812-37.2 0v-15.175c-19.766-1.309-41.408.058-61.196-.492-19.645-.55-36.325-5.696-47.97-13.704 6.45-17.542 13.708-34.267 20.07-51.892-3.687-4.312-10.1-5.892-14.683-9.3 4.113-14.817 8.27-29.592 12.725-44.058" fill="rgb(26,23,27)"/><path d="M46.134 232.352c-.091-.416.188-.462.488-.491.396.091.492.491.983.491 6.33 11.171 12.717 20.609 18.109 33.288 2.833 6.654 5.491 14.442 2.45 22.52-3.009 7.984-11.684 13.742-20.071 14.197-11.725.625-24.454-8.171-24.48-22.521-.012-9.075 5.646-17.859 9.3-24.967 4.346-8.45 8.113-15.042 13.221-22.517" fill="rgb(26,23,27)"/></svg>