<svg clip-rule="evenodd" fill-rule="evenodd" stroke-linejoin="round" stroke-miterlimit="2" viewBox="0 0 220.64 301.52" xmlns="http://www.w3.org/2000/svg"><g fill="#1a171b"><path d="m0-47.646c1.688-.248 2.98.345 4.246 0 .555-.152.854-.758 1.34-1.118.582-.429 1.06-.527 1.564-.894v-1.676c-1.431-.164-2.865.015-2.904-1.341-.047-1.662 2.217-1.34 4.358-1.34 2.236 0 4.417-.301 4.132 1.564-.162 1.075-1.105 1.069-2.793 1.005v1.677c.42.44.977.663 1.453 1.005.504.36.866.739 1.34 1.118 5.672.102 8.493 3.053 9.61 7.708.461.246 1.445-.031 1.675.446.151.639.215 1.748-.111 2.236-1.096.389-2.66.223-4.135.223-1.474 0-3.039.166-4.132-.223-.5-1.027-.33-2.904 1.117-2.682-.78-1.325-1.951-2.752-3.91-2.347-.852.177-1.635 1.533-2.682 1.901-2.697.947-4.543-.598-5.811-1.901h-4.357v21.674c12.023.205 24.582.113 37.205.113 1.373 0 4.311-.198 4.803.447.387.503.633 4.402-.112 5.139-.664.659-1.654.188-2.904.335-.574.983-.637 2.116-.892 3.128-.782 3.071-1.571 6.061-2.459 9.496-1.094 4.224-1.799 8.581-4.692 11.286-1.517 1.417-3.752 2.676-6.48 2.904-2.758.228-5.567 0-8.492 0h-21.116c-1.984 0-3.851.273-4.691-.559-1.074-1.064-.67-5.697-.67-8.267v-57.985c0-2.674-.275-4.929 1.787-5.362.961-.202 2.324 0 3.799 0 2.324 0 4.027-.22 4.691 1.116.651 1.309.223 3.57.223 5.475z" transform="matrix(4.16667 0 0 4.16667 44.05663287 250.11225604)"/><path d="m0-7.992c1.086-.438 1.66 1.322 2.123 2.234.57 1.123 1.205 2.265 1.229 3.017.068 2.062-1.717 3.179-3.352 3.017-1.51-.151-2.568-1.405-2.568-2.906 0-.883.679-2.154 1.004-2.793.418-.819.912-1.767 1.341-2.346.08-.109.084-.166.223-.223" transform="matrix(4.16667 0 0 4.16667 124.12753026 141.21216892)"/></g></svg>