<svg xmlns="http://www.w3.org/2000/svg" viewBox="0 0 225.76 313.18" fill-rule="evenodd" clip-rule="evenodd" stroke-linejoin="round" stroke-miterlimit="2"><path d="M27.655 36.847c16.333-.367 13.746-27.092-3.687-22.567-12.721 3.6-9.146 22.85 3.687 22.567M.485 0h84.283v53.887C55.072 51.343 26.905 47.263.026 41.91V1.39C-.016.73-.054.08.484 0" fill="rgb(26,23,27)"/><path d="M103.184 28.097c-1.637.658-1.008 5.529-.454 6.908h41.446c.93-1.38.258-4.346.462-6.45-12.912-1.062-27.783-.162-41.454-.458m-.454-17.504c-1.067 1.4-.162 4.75-.467 6.908h41.913c.733-1.43.733-5.475 0-6.908H102.73zM92.134 0h133.559v41.904c-40.909 7.37-85.392 15.838-134.017 12.442V1.388c-.038-.658-.08-1.312.458-1.387" fill="rgb(26,23,27)"/><path d="M64.038 89.35c-11.483 9.468-18.87 19.105-24.404 34.543-5.716 15.916-5.958 34.12-.929 50.196 8.788 28.083 31.85 49.395 63.558 53.887 16.709 2.363 34.58-.37 48.821-8.292 22.817-12.687 43.984-38.395 40.984-76.912-1.45-18.65-12.763-38.225-23.025-48.354-13.621-13.442-35.384-24.946-62.638-22.109-18.846 1.967-31.558 8.125-42.367 17.042M.48 48.82c34.146 5.176 72.192 13.36 111.913 13.36 39.308 0 76.62-6.738 112.837-11.513 1.071 68.929.154 139.85.463 209.546-74.155.762-151.521.762-225.667 0V50.2c-.042-.65-.083-1.3.454-1.38" fill="rgb(26,23,27)"/><path d="M107.788 95.334c-14.308 1.117-27.166 8.767-35 17.504-9.408 10.484-15.775 24.75-14.275 43.292 2.017 24.909 23.421 46.95 48.355 49.275 29.345 2.73 46.445-12.366 57.104-31.775-2.596-5.958-7.354-13.3-8.284-21.646-1.254-11.296 2.859-20.196 6.446-28.091-10.854-16.709-25.641-30.788-54.346-28.559m5.525-16.579h.467c24.558.17 38.842 9.125 50.658 21.183 10.93 11.159 21.117 27.771 21.184 50.2.062 21.826-8.913 38.167-20.267 49.742-12.296 12.546-27.783 21.471-47.892 22.104-21.379.671-37.587-6.183-51.587-18.42-14.313-12.517-26.213-31.425-23.95-59.876 1.483-18.504 11.092-35.145 22.112-45.587 5.405-5.125 12.655-9.783 20.73-13.358 8.216-3.646 17.683-5.913 28.545-5.988" fill="rgb(26,23,27)"/><path d="M.943 267.122c74.762.3 150.758-.617 224.746.458v45.596H.022v-44.675c-.025-.783.341-1.192.92-1.38" fill="rgb(26,23,27)"/></svg>