<svg xmlns="http://www.w3.org/2000/svg" viewBox="0.01 0.01 226.31 288.11" fill-rule="evenodd" clip-rule="evenodd" stroke-linejoin="round" stroke-miterlimit="2"><path d="M179.734 26.684c.155 13.688 18.084 20.313 26.996 10.125 9.85-11.258-.546-27.583-14.462-25.066-7.067 1.275-12.621 6.791-12.534 14.941m-35.67-.479c-.071 6.27 4.012 13.096 10.125 14.946 9.562 2.887 17.05-2.833 19.279-9.167 4.062-11.512-5.296-22.262-16.871-20.241-7.658 1.337-12.433 6.283-12.533 14.462m-56.4.963c0 6.745-.075 11.487 1.445 13.012 3.013 3.013 16.392 1.446 24.105 1.446 6.845 0 20.925 1.737 24.1-1.446 2.683-2.675 2.608-24.867 0-27.47-2.88-2.884-17.525-1.45-22.171-1.45-9.059 0-19.546-1.334-24.104.483-4.709 1.875-3.375 7.17-3.375 15.425m-34.705-7.234c-5.712 13.688 7.292 24.83 19.28 21.217 6.383-1.933 10.366-8.763 10.125-15.43-.35-9.49-8.909-15.803-18.321-13.978-5.613 1.087-9.85 5.237-11.084 8.191m-33.262-3.858c-6.225 6.967-4.075 21.867 6.266 25.075 5.984 1.85 12.909-.22 16.388-3.858 10.35-10.834-.113-28.059-13.98-25.55-3.733.67-6.628 2.05-8.674 4.333m196.196 36.158H10.538V25.238c0-10.466-2.237-22.97 4.821-24.583 6.384-1.458 16.38 0 25.063 0h150.4c7.304 0 20.987-1.158 23.62 1.442 3.23 3.2 1.45 18.158 1.45 24.587v25.55z" fill="rgb(26,23,27)"/><path d="M128.155 20.9c1.054 2.637.217 7.18.485 10.603l-30.857.002c.278-3.425-.57-7.966.49-10.605h29.882z" fill="rgb(26,23,27)"/><path d="M29.334 21.863c5.142-1.762 7.33 1.188 7.23 4.821-.163 6.354-9.98 7.004-10.605.484-.279-2.938.634-4.359 3.375-5.305" fill="rgb(26,23,27)"/><path d="M71.276 22.83c5.313 7.504-7.075 12.304-9.158 5.783-1.767-5.529 4.191-9.541 9.158-5.783" fill="rgb(26,23,27)"/><path d="M163.83 23.313c2.138 4.275-1.37 9.955-6.75 8.196-7.07-2.316-.129-15.812 6.75-8.196" fill="rgb(26,23,27)"/><path d="M193.234 21.863c1.763-.612 2.792-.775 3.859-.479 2.554.696 6.008 8.513 0 10.121-5.788 1.55-10.654-7.258-3.859-9.642" fill="rgb(26,23,27)"/><path d="M3.793 62.843c5.095-2.034 21.045-.484 28.437-.484h165.346c7.08 0 23.563-1.246 26.513.959 3.037 2.279 2.745 16.091.479 18.32-2.904 2.863-19.042 1.446-26.992 1.446H28.86c-7.466 0-22.887 1.65-26.516-1.446-2.75-2.341-3.638-15.991.483-18.32.3-.163.487-.292.967-.475" fill="rgb(26,23,27)"/><path d="M154.189 246.984c.162 4.496 3.904 4.542 7.716 4.817 6.625.48 13.18-.004 12.525-5.783-.62-5.538-10.354-5.538-15.904-3.859-2.53.771-4.483.975-4.337 4.825m46.27-17.358c-.312 3.863.642 8.996-.479 12.054-7.241.046-14.679-1.137-14.946 4.821-.22 5.042 4.459 5.213 10.13 5.3 4.945.075 11.033.675 13.979-1.442 2.237-5.141 2.237-17.525 0-22.662-2.975-2.27-7.3-1.104-8.684 1.93m15.434-136.418v143.646c0 6.092.904 16.438-1.45 18.804-2.654 2.671-17.192 1.446-24.584 1.446H36.084c-6.841 0-21.279 1.392-24.1-1.446-2.408-2.416-1.45-12.125-1.45-19.279V93.21c69.525-.134 136.721-.138 205.359 0" fill="rgb(26,23,27)"/><path d="M26.447 267.23h174.017c-.963 4.113 1.883 15.954-1.442 19.284-2.313 2.304-14.088 1.445-20.733 1.445H47.655c-7.317 0-18.054.734-20.246-1.445-3.15-3.138-.612-13.175-1.446-17.838-.045-.683-.079-1.358.484-1.446" fill="rgb(26,23,27)"/></svg>