<svg clip-rule="evenodd" fill-rule="evenodd" stroke-linejoin="round" stroke-miterlimit="2" viewBox="0 0 536.2 295.96" xmlns="http://www.w3.org/2000/svg"><g fill="#1a171b"><path d="m0 26.34c-.355 2.196-.199 4.658-.199 8.145 0 2.131-.795 7.061 1.589 6.556 1.642-.348.994-4.945.994-7.152 0-3.185.285-6.015-.398-7.946-.621-.268-1.865-.387-1.986.397m-6.755 0c-.354 2.126-.198 4.608-.198 7.946 0 2.333-.799 6.904 1.39 6.755 1.924-.132 1.192-4.905 1.192-7.152 0-3.202.287-6.006-.397-7.946-.621-.268-1.865-.387-1.987.397m7.748-48.472c.206 1.541.555 3.784.794 5.959.434 3.932 1.156 7.491-1.787 8.344v17.879c4.313-.703 8.976.476 6.953 4.768-.161.341-.586.542-.994.993-.331.331-1.45-.126-1.39.596-.33 1.521.355 2.029 1.39 2.185.542.252.792.797 1.192 1.192v20.859c0 2.401.486 5.219-.198 6.556-.902 1.762-6.523 1.192-8.94 1.192-1.996 0-7.941.639-9.337-.596-1.607-1.423-.794-10.812-.794-13.707v-7.351c0-2.42-.382-5.547.199-6.953.243-.589.872-.976 1.39-1.39.713-.571 1.3.034 1.192-1.391-.106-1.39-1.919-.815-2.582-2.384-1.717-4.057 2.734-5.203 6.952-4.569.464-5.496.067-11.853.199-17.68-.422-1.106-1.806-.886-2.185-2.186-.356-1.219.371-3.637.595-6.158.222-2.474.238-5.123.795-5.959 1.412-.757 4.822-.41 6.556-.199" transform="matrix(4.16667 0 0 4.16667 212.91950386 93.323004223)"/><path d="m0 25.819c-.354 2.106-.199 4.533-.199 7.946 0 2.333-.776 6.902 1.39 6.755 1.936-.132 1.192-5.11 1.192-7.351 0-3.26.397-6.256-.595-7.946-.835-.041-1.661-.071-1.788.596m-6.357-.596c-1.012 1.637-.596 4.81-.596 7.946 0 2.308-.799 7.5 1.39 7.351 2.042-.139 1.192-5.034 1.192-6.953 0-3.118.152-5.717-.198-7.947-.7-.318-.922-.673-1.788-.397m21.057-47.28c.691 1.883.398 4.595.398 7.151 0 2.504.292 5.119-.398 6.954-1.743.708-5.499.458-7.549.198-1.194.135-.528-1.59-.993-2.185-1.573.05-3.033-.013-4.37-.199-.462 6.16-.068 13.176-.199 19.667 3.687-.311 6.488.267 5.761 4.371-.539.254-.572 1.017-1.192 1.191-.041.687-1.474-.018-1.39.795-.67 2.412 1.7 1.674 2.383 3.179.611 1.345.199 4.662.199 7.151v14.304c0 2.55.222 5.63-.596 6.555-1.353 1.531-6.613.795-9.138.795-2.473 0-7.744.558-8.94-.795-1.423-1.61-.595-10.093-.595-13.906v-7.151c0-2.618-.457-5.511.198-6.953.479-1.056 2.008-1.114 2.384-1.788-.105-.308.137-.766 0-1.192-.381-1.186-2.352-.96-2.582-2.98-.295-2.579 1.859-4.193 5.562-3.576.463-6.357.066-13.575.199-20.263-3.702-.452-6.952-.335-9.536.795-1.53.668-2.577 2.293-4.172 1.987-1.782-1.129-.283-3.184.397-4.371 2.045-3.562 6.115-7.402 11.125-7.946 4.606-.5 9.363.368 14.502 0 .476-.451-.128-1.982.795-1.987 2.137-.234 5.924-.531 7.747.199" transform="matrix(4.16667 0 0 4.16667 86.27773588 95.493839293)"/><path d="m0-13.98c-4.184 0-8.978-.618-10.33 1.191-.229 1.714-.396 4.476 0 6.159h17.681c-.103-2.017.222-4.461-.199-6.159-.987-1.586-4.187-1.191-7.152-1.191m12.714 7.152c5.874.913 13.409-1.629 15.098 3.575.65 2.004.089 5.718 0 8.543h-8.541c1.172-5.751-7.042-5.46-5.96 0h-29.402c1.153-5.648-7.096-5.58-5.96 0-2.853-.127-6.216.256-8.741-.199.292-3.47-.54-6.763.397-8.939 1.94-4.502 8.823-2.216 14.702-2.782.643-2.394-.18-4.661.198-6.754.51-2.817 3.252-5.323 6.158-5.762 2.279-.342 5.397 0 8.145 0 2.837 0 5.799-.38 7.947 0 2.804.498 5.477 3.188 5.959 5.96.338 1.944-.248 4.098 0 6.358" transform="matrix(4.16667 0 0 4.16667 419.02383541 135.507204637)"/><path d="m0-31.498h8.344c-.859 5.609 6.993 5.505 6.158 0h29.203c-.867 5.558 7.038 5.575 6.158 0h8.541v20.858c0 4.228.452 8.385-2.78 9.536-1.585.564-4.299.199-6.556.199h-33.175c-4.523 0-12.027.905-14.304-.795-2.763-2.063-1.986-8.673-1.986-13.707v-15.495c-.009-.34.147-.515.397-.596" transform="matrix(4.16667 0 0 4.16667 291.5529001 298.72358521)"/></g></svg>