<svg xmlns="http://www.w3.org/2000/svg" viewBox="0 0.01 268.18 240.09" fill-rule="evenodd" clip-rule="evenodd" stroke-linejoin="round" stroke-miterlimit="2"><path d="M99.34 19.49c-32.113 1.03-66.13.146-98.976.434C-.394 8.965 6.102 1.586 16.714.49c10.23-1.058 24.096 0 37.117 0 11.8 0 27.867-1.712 35.346 1.325 6.15 2.496 10.283 9.504 10.162 17.675" fill="rgb(26,23,27)"/><path d="M48.973 51.665C38.368 41.353 23.71 50.124 23.785 60.94c.058 9.671 9.287 15.904 18.554 13.25 2.85-.808 4.192-3.354 7.071-3.97 6.83-1.467 18.2 1.795 25.63-.888.512-4.75 1.178-13.175-.45-17.233-7.663-1.017-17.217-.15-25.617-.434M.81 32.661h98.088c.8 28.925.441 62.413.441 93.671 0 9.633-1.529 22.212 1.325 30.046 2.892 7.929 9.98 14.47 18.117 16.35 5.07 1.166 11.817.437 18.554.437h94.117c9.716 0 30.833-1.983 34.904 2.654 3.288 3.759 1.4 13.546 0 19.88-4.337 19.583-14.396 30.558-23.738 44.066 0 0-192.708 1.213-204.6-.991-4.6-22-23.275-40.767-30.583-57.655-4.038-9.325-6.713-20.291-7.07-31.812-1.147-36.67.87-78.183 0-115.317-.034-.629-.076-1.254.445-1.329" fill="rgb(26,23,27)"/><path d="M36.593 51.661c13.346-2.13 13.705 16.817 3.542 18.554-13.004 2.221-15.683-16.625-3.542-18.554" fill="rgb(26,23,27)"/><path d="M38.61 53.578c-.533 0-1.096.046-1.683.141-4.834.767-6.267 4.634-6.025 7.709.304 3.837 3.266 7.687 8.883 6.733 3.87-.658 5.642-4.762 5.342-8.283-.259-3.046-2.105-6.3-6.517-6.3m-.542 18.904c-6.875 0-10.9-5.396-11.32-10.725-.396-5.063 2.408-11.025 9.52-12.154 8.392-1.325 12.538 4.341 13.013 9.925.454 5.37-2.471 11.662-8.796 12.741a14.16 14.16 0 0 1-2.417.213" fill="white" fill-rule="nonzero"/><path d="M51.177 56.09h19.441c.717 2.313.717 7.404 0 9.717H51.614c-.42-2.692.921-6.533-.437-9.717" fill="rgb(26,23,27)"/><path d="M53.64 63.732h15.278c.205-1.658.205-3.892 0-5.55h-15.1c.15 1.47.03 2.925-.083 4.267-.033.441-.07.87-.096 1.283m18.513 4.167H49.835l-.275-1.763c-.204-1.283-.087-2.68.02-4.033.155-1.821.313-3.709-.32-5.188l-1.237-2.9h24.129l.458 1.467c.842 2.712.842 8.237 0 10.95l-.458 1.467z" fill="white" fill-rule="nonzero"/><path d="M258.844 160.44H136.448c-.246-8.558-1.155-17.537 6.633-19.004 4.237-.796 9.846 0 15.02 0h73.788c9.384 0 23.242-1.42 26.067 3.538 1.98 3.475.325 12.012.888 15.466" fill="rgb(26,23,27)"/></svg>