<svg xmlns="http://www.w3.org/2000/svg" viewBox="0 0.01 268.18 296.41" fill-rule="evenodd" clip-rule="evenodd" stroke-linejoin="round" stroke-miterlimit="2"><path d="M99.336 19.49c-32.113 1.03-66.13.146-98.976.434C-.398 8.965 6.098 1.586 16.71.49c10.23-1.058 24.096 0 37.117 0 11.8 0 27.867-1.712 35.346 1.325 6.15 2.496 10.283 9.504 10.163 17.675" fill="rgb(26,23,27)"/><path d="M48.969 51.665C38.365 41.353 23.706 50.124 23.78 60.94c.059 9.671 9.288 15.904 18.555 13.25 2.85-.808 4.191-3.354 7.07-3.97 6.83-1.467 18.2 1.795 25.63-.888.512-4.75 1.179-13.175-.45-17.233-7.663-1.017-17.217-.15-25.617-.434M.806 32.661h98.088c.8 28.925.442 62.413.442 93.671 0 9.633-1.53 22.212 1.325 30.046 2.891 7.929 9.979 14.47 18.116 16.35 5.071 1.166 11.817.437 18.554.437h94.117c9.717 0 30.834-1.983 34.904 2.654 3.288 3.759 1.4 13.546 0 19.88-4.337 19.583-15.404 32.004-24.75 45.508-10.958 15.867-21.8 31.508-33.575 48.163-1.791 2.533-3.533 5.487-5.3 6.187-4.141 1.63-12.946.442-19.441.442H66.636c-6.296 0-12.646.708-18.555-.884-1.62-6.17-.887-12.679-.887-18.554 0-20.037-2.375-35.079-8.83-49.05-8.274-17.887-23.624-29.504-30.933-46.392-4.037-9.325-6.712-20.291-7.07-31.812-1.146-36.67.87-78.183 0-115.317-.034-.629-.076-1.254.445-1.329" fill="rgb(26,23,27)"/><path d="M36.59 51.661c13.346-2.13 13.704 16.817 3.541 18.554-13.004 2.221-15.683-16.625-3.541-18.554" fill="rgb(26,23,27)"/><path d="M38.606 53.578c-.533 0-1.095.046-1.683.141-4.833.767-6.267 4.634-6.025 7.709.304 3.837 3.267 7.687 8.883 6.733 3.871-.658 5.642-4.762 5.342-8.283-.258-3.046-2.104-6.3-6.517-6.3m-.541 18.904c-6.875 0-10.9-5.396-11.321-10.725-.396-5.063 2.408-11.025 9.52-12.154 8.392-1.325 12.538 4.341 13.013 9.925.454 5.37-2.47 11.662-8.796 12.741a14.16 14.16 0 0 1-2.416.213" fill="white" fill-rule="nonzero"/><path d="M51.173 56.09h19.442c.716 2.313.716 7.404 0 9.717H51.61c-.421-2.692.92-6.533-.438-9.717" fill="rgb(26,23,27)"/><path d="M53.636 63.732h15.279c.204-1.658.204-3.892 0-5.55h-15.1c.15 1.47.029 2.925-.084 4.267-.033.441-.07.87-.095 1.283m18.512 4.167H49.831l-.275-1.763c-.204-1.283-.087-2.68.021-4.033.154-1.821.313-3.709-.32-5.188l-1.238-2.9h24.129l.458 1.467c.842 2.712.842 8.237 0 10.95l-.458 1.467z" fill="white" fill-rule="nonzero"/><path d="M258.84 160.44H136.444c-.246-8.558-1.154-17.537 6.633-19.004 4.238-.796 9.846 0 15.021 0h73.788c9.383 0 23.241-1.42 26.066 3.538 1.98 3.475.325 12.012.888 15.466" fill="rgb(26,23,27)"/></svg>