<?xml version="1.0" encoding="UTF-8" standalone="no"?>
<!DOCTYPE svg PUBLIC "-//W3C//DTD SVG 1.1//EN" "http://www.w3.org/Graphics/SVG/1.1/DTD/svg11.dtd">
<svg width="100%" height="100%" viewBox="0 0 339 229" version="1.1" xmlns="http://www.w3.org/2000/svg" xmlns:xlink="http://www.w3.org/1999/xlink" xml:space="preserve" xmlns:serif="http://www.serif.com/" style="fill-rule:evenodd;clip-rule:evenodd;stroke-linejoin:round;stroke-miterlimit:2;">
    <g transform="matrix(1,0,0,1,-2622.48,-3857.62)">
        <g transform="matrix(4.16667,0,0,4.16667,0,0)">
            <g transform="matrix(1,0,0,1,710.102,948.303)">
                <path d="M0,10.006C-1.183,4.742 -5.524,0.808 -10.982,0.099C-14.013,-0.295 -17.337,0.249 -21.01,-0.141C-21.733,-1.061 -21.497,-2.259 -22.203,-3.005C-23.301,-4.168 -25.493,-3.893 -26.263,-2.647C-26.71,-1.919 -26.362,-0.76 -27.217,-0.141C-29.606,0.056 -32.826,0.061 -35.214,-0.141C-35.519,-0.95 -35.163,-2.421 -35.454,-3.244C-36.345,-4.447 -38.327,-3.824 -38.557,-5.513C-38.926,-8.217 -35.646,-7.612 -33.263,-7.655C-33.003,-7.584 -32.738,-7.536 -32.472,-7.536C-31.677,-7.536 -30.884,-7.849 -30.294,-8.473L-22.709,-16.473L-4.169,-16.473C-2.512,-16.473 -1.169,-17.815 -1.169,-19.473C-1.169,-21.13 -2.512,-22.473 -4.169,-22.473L-23.999,-22.473C-24.822,-22.473 -25.609,-22.134 -26.176,-21.536L-33.372,-13.945C-35.361,-14.133 -37.984,-13.868 -40.109,-13.868C-44.818,-13.868 -50.649,-14.954 -51.33,-11.6C-51.704,-9.752 -50.736,-8.482 -49.897,-8.019C-48.438,-7.214 -44.63,-8.244 -43.331,-7.423C-42.779,-7.071 -42.289,-5.917 -42.735,-4.915C-43.15,-3.982 -45.108,-4.035 -45.48,-3.483C-46.003,-2.709 -45.491,-0.975 -45.839,-0.021C-48.507,-0.099 -51.486,0.136 -53.956,-0.141C-54.638,-0.881 -54.354,-1.927 -54.792,-2.647C-55.558,-3.909 -57.597,-4.057 -58.612,-3.244C-59.575,-2.472 -59.274,-1.046 -60.163,-0.021C-63.511,0.154 -66.501,-0.3 -69.475,0.099C-75.222,0.866 -80.169,5.726 -80.575,11.796C-80.989,17.961 -80.271,24.983 -80.575,32.209C-74.737,32.3 -68.353,32.479 -62.67,32.328L-62.67,25.644C-62.67,22.965 -63.528,17.385 -60.521,18.005C-59.448,18.225 -59.52,20.619 -58.731,21.347C-58.101,21.927 -57.081,22.039 -56.463,21.944C-54.47,21.632 -54.724,19.479 -53.837,18.124C-47.351,17.906 -40.245,18.005 -33.544,18.005C-31.724,18.005 -27.751,17.589 -26.979,18.362C-26.685,18.656 -26.708,19.066 -26.62,19.437C-26.517,19.876 -26.461,20.096 -26.263,20.511C-25.593,21.91 -23.546,22.452 -22.322,21.347C-21.288,20.411 -21.802,18.304 -20.532,18.005C-19.216,17.694 -18.065,18.822 -17.786,19.795C-17.3,21.491 -17.667,23.844 -17.667,25.883L-17.667,32.209C-11.792,32.381 -5.677,32.316 0.239,32.448C0.456,28.847 0.358,24.907 0.358,21.108C0.358,17.138 0.71,13.16 0,10.006" style="fill:rgb(26,23,27);fill-rule:nonzero;"/>
            </g>
        </g>
        <g transform="matrix(4.16667,0,0,4.16667,0,0)">
            <g transform="matrix(1,0,0,1,665.31,929.027)">
                <path d="M0,4L7.434,4C8.538,4 9.434,3.104 9.434,2C9.434,0.896 8.538,0 7.434,0L0,0C-1.104,0 -2,0.896 -2,2C-2,3.104 -1.104,4 0,4" style="fill:rgb(26,23,27);fill-rule:nonzero;"/>
            </g>
        </g>
    </g>
</svg>
