<?xml version="1.0" encoding="UTF-8" standalone="no"?>
<!DOCTYPE svg PUBLIC "-//W3C//DTD SVG 1.1//EN" "http://www.w3.org/Graphics/SVG/1.1/DTD/svg11.dtd">
<svg width="100%" height="100%" viewBox="0 0 532 282" version="1.1" xmlns="http://www.w3.org/2000/svg" xmlns:xlink="http://www.w3.org/1999/xlink" xml:space="preserve" xmlns:serif="http://www.serif.com/" style="fill-rule:evenodd;clip-rule:evenodd;stroke-linejoin:round;stroke-miterlimit:2;">
    <g transform="matrix(1,0,0,1,-1037.04,-4393.29)">
        <g transform="matrix(4.16667,0,0,4.16667,0,0)">
            <g transform="matrix(1,0,0,1,373.729,1071.72)">
                <path d="M0,-17.242C2.735,-16.095 2.109,-11.161 -1.667,-11.615C-3.162,-11.796 -3.287,-13.244 -4.794,-13.282C-5.274,-12.445 -4.866,-10.716 -5.001,-9.531L2.71,-9.531L2.71,-5.779C-6.245,-5.64 -16.598,-7.573 -17.089,0.889C-18.154,1.227 -19.394,0.399 -20.839,0.471C-19.837,-5.82 -16.196,-9.473 -8.96,-9.531C-8.479,-10.369 -8.889,-12.098 -8.752,-13.282C-9.969,-13.032 -10.052,-11.844 -11.253,-11.615C-13.2,-11.245 -15.067,-12.429 -15.004,-14.534C-14.927,-17.12 -11.065,-18.469 -9.377,-15.783L-4.167,-15.783C-3.033,-16.525 -2.299,-17.666 0,-17.242" style="fill:rgb(26,23,27);"/>
            </g>
        </g>
        <g transform="matrix(4.16667,0,0,4.16667,0,0)">
            <g transform="matrix(1,0,0,1,249.109,1122.28)">
                <path d="M0,-44.247L13.753,-44.247C15.085,-42.808 15.661,-40.831 16.463,-39.037C18.785,-33.837 21.401,-28.232 23.756,-22.782C30.767,-25.844 37.651,-29.032 44.596,-32.16C43.277,-36.401 40.587,-40.372 39.594,-44.247L113.576,-44.247C112.126,-35.717 110.468,-27.768 108.781,-19.447C108.208,-16.612 107.955,-13.276 106.906,-10.695C104.898,-5.751 98.622,-1.094 91.693,-0.483C86.184,0 80.24,-0.483 74.188,-0.483L39.178,-0.483C33.337,-0.483 27.358,-0.061 21.881,-0.483C14.529,-1.05 7.923,-6.185 6.25,-11.32C5.465,-13.731 5.124,-16.773 4.583,-19.447C2.939,-27.588 1.671,-35.091 -0.209,-43.622C-0.228,-43.918 -0.244,-44.212 0,-44.247" style="fill:rgb(26,23,27);"/>
            </g>
        </g>
    </g>
</svg>
