<?xml version="1.0" encoding="UTF-8" standalone="no"?>
<!DOCTYPE svg PUBLIC "-//W3C//DTD SVG 1.1//EN" "http://www.w3.org/Graphics/SVG/1.1/DTD/svg11.dtd">
<svg width="100%" height="100%" viewBox="0 0 265 309" version="1.1" xmlns="http://www.w3.org/2000/svg" xmlns:xlink="http://www.w3.org/1999/xlink" xml:space="preserve" xmlns:serif="http://www.serif.com/" style="fill-rule:evenodd;clip-rule:evenodd;stroke-linejoin:round;stroke-miterlimit:2;">
    <g transform="matrix(1,0,0,1,-2511.82,-803.302)">
        <g transform="matrix(4.16667,0,0,4.16667,0,0)">
            <g transform="matrix(1,0,0,1,612.16,226.256)">
                <path d="M0,2.903C-0.8,2.903 -1.451,2.252 -1.451,1.452C-1.451,0.652 -0.8,0 0,0C0.8,0 1.451,0.652 1.451,1.452C1.451,2.252 0.8,2.903 0,2.903M3.451,1.452C3.451,-0.451 1.903,-2 0,-2C-1.903,-2 -3.451,-0.451 -3.451,1.452C-3.451,3.355 -1.903,4.903 0,4.903C1.903,4.903 3.451,3.355 3.451,1.452" style="fill:rgb(26,23,27);fill-rule:nonzero;"/>
            </g>
        </g>
        <g transform="matrix(4.16667,0,0,4.16667,0,0)">
            <g transform="matrix(1,0,0,1,625.174,209.738)">
                <path d="M0,40.226C-5.28,40.226 -3.361,44.065 -3.361,44.065C-5.526,44.63 -6.315,45.972 -6.486,47.393C-6.513,47.372 -6.532,47.351 -6.559,47.33C-8.841,45.5 -10.429,46.13 -11.328,46.909C-14.797,43.442 -17.448,39.059 -18.896,34.261C-19.656,31.734 -20.186,21.33 -20.349,5.716C-20.353,5.348 -20.355,4.978 -20.359,4.609C-19.66,4.184 -18.141,3.67 -15.891,5.077C-13.928,6.303 -12.332,6.763 -11.044,6.763C-9.344,6.763 -8.178,5.964 -7.404,5.07C-6.835,4.413 -4.32,3.373 -2.64,3.668C-1.849,3.808 -1.707,4.178 -1.654,4.318L-1.625,4.307C-1.645,8.535 -1.711,13.098 -1.825,18.107C-2.035,27.288 -0.68,33.079 2.441,36.33C3,36.912 3.621,37.397 4.288,37.805C0.816,37.589 0,40.226 0,40.226M41.038,-3.963C41.038,-8.342 41.391,-12.762 40.6,-16.946L38.823,-16.942C38.823,-16.942 39.187,-11.25 39.132,-7.302C39.114,-6.065 39.1,-4.897 39.1,-3.963C39.1,-3.325 39.114,-2.264 39.135,-0.795C39.188,2.943 39.281,9.63 39.184,16.252C38.687,16.595 37.852,16.937 36.538,16.768C36.057,16.706 34.536,14.969 32.937,15.268C31.336,15.566 29.901,16.948 29.439,17.096C27.62,17.683 26.089,16.852 25.257,17.008C24.061,17.232 23.479,18.269 22.194,18.045C21.621,17.945 21.139,17.842 20.816,17.768C20.405,11.319 20.534,5.976 20.671,0.321C20.746,-2.742 20.822,-5.911 20.822,-9.456C20.822,-9.624 20.825,-9.85 20.828,-10.107C20.833,-10.801 20.842,-11.664 20.821,-12.359C20.761,-14.512 20.64,-16.899 20.64,-16.899L19.104,-16.896C18.73,-16.207 18.845,-13.687 18.883,-12.305C18.909,-11.381 18.883,-10.06 18.883,-9.456C18.883,0.73 18.242,7.916 18.883,17.933C19.82,32.572 16.141,37.289 9.749,37.289C9.671,37.289 9.59,37.289 9.51,37.288C3.118,37.173 -0.199,31.78 0.113,18.151C0.348,7.909 0.431,-2.196 0.113,-11.867C0.098,-12.358 0.099,-15.833 -0.246,-16.874L-2.164,-16.869C-2.164,-16.869 -1.86,-15.723 -1.833,-12.545C-1.831,-12.152 -1.828,-11.886 -1.824,-11.803C-1.686,-7.592 -1.617,-3.086 -1.619,1.893C-1.833,1.815 -2.05,1.741 -2.292,1.698C-4.55,1.296 -7.823,2.498 -8.917,3.761C-10.15,5.189 -12.141,5.061 -14.83,3.381C-17.062,1.986 -18.994,1.989 -20.374,2.438C-20.428,-7.434 -20.279,-16.827 -20.279,-16.827L-21.944,-16.823L-22.061,-16.694C-22.456,-12.664 -22.707,28.336 -20.751,34.82C-17.069,47.038 -6.178,57.172 9.229,57.172C9.387,57.172 9.546,57.171 9.704,57.169C25.283,56.959 36.258,46.651 39.724,34.381C41.777,27.112 41.038,0.372 41.038,-3.963" style="fill:rgb(26,23,27);fill-rule:nonzero;"/>
            </g>
        </g>
        <g transform="matrix(4.16667,0,0,4.16667,0,0)">
            <g transform="matrix(-1,0,0,1,618.677,235.306)">
                <path d="M0,-3.508C0.97,-3.508 1.754,-2.723 1.754,-1.754C1.754,-0.785 0.97,0 0,0C-0.969,0 -1.754,-0.785 -1.754,-1.754C-1.754,-2.723 -0.969,-3.508 0,-3.508" style="fill:rgb(26,23,27);fill-rule:nonzero;"/>
            </g>
        </g>
        <g transform="matrix(4.16667,0,0,4.16667,0,0)">
            <g transform="matrix(-1,0,0,1,614.678,244.075)">
                <path d="M-0.003,-4.902C1.352,-4.902 2.45,-3.805 2.45,-2.451C2.45,-1.097 1.352,0 -0.003,0C-1.356,0 -2.453,-1.097 -2.453,-2.451C-2.453,-3.805 -1.356,-4.902 -0.003,-4.902" style="fill:rgb(26,23,27);fill-rule:nonzero;"/>
            </g>
        </g>
    </g>
</svg>
