<?xml version="1.0" encoding="UTF-8" standalone="no"?>
<!DOCTYPE svg PUBLIC "-//W3C//DTD SVG 1.1//EN" "http://www.w3.org/Graphics/SVG/1.1/DTD/svg11.dtd">
<svg width="100%" height="100%" viewBox="0 0 408 292" version="1.1" xmlns="http://www.w3.org/2000/svg" xmlns:xlink="http://www.w3.org/1999/xlink" xml:space="preserve" xmlns:serif="http://www.serif.com/" style="fill-rule:evenodd;clip-rule:evenodd;stroke-linejoin:round;stroke-miterlimit:2;">
    <g transform="matrix(1,0,0,1,-1715.29,-3798.53)">
        <g transform="matrix(4.16667,0,0,4.16667,0,0)">
            <g transform="matrix(1,0,0,1,465.123,943.119)">
                <path d="M0,-3.503L-9.063,-3.503C-9.871,-7.792 -8.373,-13.019 -9.516,-16.794C-10.619,-20.439 -14.459,-23.161 -19.182,-21.929C-21.379,-21.357 -23.807,-19.132 -24.469,-16.794C-25.043,-14.761 -24.77,-11.791 -24.77,-8.941C-24.77,-1.603 -24.32,8.237 -24.77,15.074C-25.125,20.451 -28.529,24.238 -32.473,26.251C-34.795,27.435 -38.139,28.144 -42.291,27.761L-42.291,18.548C-38.215,18.881 -35.309,18.345 -34.285,15.527C-33.59,13.612 -33.984,10.57 -33.984,8.126C-33.984,0.524 -34.367,-7.519 -33.984,-14.982C-33.633,-21.819 -30.002,-26.692 -25.223,-29.33C-23.482,-30.29 -20.746,-31.296 -17.975,-31.444C-14.205,-31.647 -10.893,-30.699 -8.309,-29.179C-4.174,-26.747 -0.438,-22.032 0,-16.039C0.271,-12.291 -0.199,-8.325 0,-3.503" style="fill:rgb(26,23,27);"/>
            </g>
        </g>
        <g transform="matrix(4.16667,0,0,4.16667,0,0)">
            <g transform="matrix(1,0,0,1,502.578,934.47)">
                <path d="M0,-15.092C0.771,-15.357 5.947,-15.76 6.646,-14.337C7.266,-13.074 6.797,-9.336 6.797,-7.39C6.797,-5.635 7.43,-2.148 6.494,-0.744C5.803,0.295 0.174,0.668 -0.906,-0.593C-1.715,-1.535 -1.359,-4.887 -1.359,-7.541C-1.359,-10.967 -2.049,-14.39 0,-15.092" style="fill:rgb(26,23,27);"/>
            </g>
        </g>
        <g transform="matrix(4.16667,0,0,4.16667,0,0)">
            <g transform="matrix(1,0,0,1,498.35,981.979)">
                <path d="M0,-59.732C-0.098,-56.709 0.197,-53.291 -0.15,-50.519C-4.219,-50.924 -7.18,-50.16 -8.156,-47.498C-8.863,-45.568 -8.457,-42.307 -8.457,-39.795L-8.457,-31.791C-8.457,-26.21 -8.061,-20.711 -8.457,-15.932C-8.844,-11.31 -11.205,-7.591 -13.895,-5.058C-16.996,-2.137 -21.996,0.213 -27.941,-0.677C-34.727,-1.695 -40.768,-7.034 -42.139,-13.968C-42.977,-18.211 -42.137,-22.904 -42.439,-28.468L-33.227,-28.468C-33.057,-21.064 -34.283,-15.118 -30.66,-11.854C-28.883,-10.253 -25.744,-9.089 -22.504,-10.343C-20.508,-11.117 -18.617,-13.006 -17.973,-15.177C-17.389,-17.144 -17.672,-20.032 -17.672,-22.879L-17.672,-30.884C-17.672,-36.289 -18.084,-41.787 -17.672,-46.894C-17.127,-53.615 -11.719,-59.015 -5.588,-59.732C-3.764,-59.945 -1.596,-59.57 0,-59.732" style="fill:rgb(26,23,27);"/>
            </g>
        </g>
        <g transform="matrix(4.16667,0,0,4.16667,0,0)">
            <g transform="matrix(1,0,0,1,467.086,950.666)">
                <path d="M0,-8.029C1.404,-7.782 1.438,-1.565 0.604,-0.628C-0.463,0.57 -4.836,-0.024 -6.646,-0.024C-8.777,-0.024 -12.803,0.421 -13.744,-0.628C-14.434,-1.397 -14.67,-5.743 -14.047,-7.123C-13.754,-7.767 -13.01,-8.105 -12.385,-8.18C-8.895,-8.599 -3.5,-7.978 0,-8.029" style="fill:rgb(26,23,27);"/>
            </g>
        </g>
        <g transform="matrix(4.16667,0,0,4.16667,0,0)">
            <g transform="matrix(1,0,0,1,419.812,959.682)">
                <path d="M0,13.313C-0.367,13.551 -0.668,13.853 -0.906,14.219C-3.08,14.084 -6.32,15.16 -7.553,13.766C-8.52,12.672 -8.006,9.518 -8.006,7.271L-8.006,0.324C-6.977,-1.478 -1.26,-1.847 -0.152,0.022C0.67,1.406 0.15,4.448 0.15,6.667C0.15,9.079 0.25,11.445 0,13.313" style="fill:rgb(26,23,27);"/>
            </g>
        </g>
    </g>
</svg>
