<?xml version="1.0" encoding="UTF-8" standalone="no"?>
<!DOCTYPE svg PUBLIC "-//W3C//DTD SVG 1.1//EN" "http://www.w3.org/Graphics/SVG/1.1/DTD/svg11.dtd">
<svg width="100%" height="100%" viewBox="0 0 230 306" version="1.1" xmlns="http://www.w3.org/2000/svg" xmlns:xlink="http://www.w3.org/1999/xlink" xml:space="preserve" xmlns:serif="http://www.serif.com/" style="fill-rule:evenodd;clip-rule:evenodd;stroke-linejoin:round;stroke-miterlimit:2;">
    <g transform="matrix(1,0,0,1,-2889.2,-1353.77)">
        <g transform="matrix(4.16667,0,0,4.16667,0,0)">
            <g transform="matrix(1,0,0,1,708.081,325.61)">
                <path d="M0,72.413C-4.601,72.008 -11.68,73.652 -13.73,70.517C-14.703,69.036 -14.522,65.884 -14.522,62.627L-14.522,10.696C-14.522,7.743 -14.952,4.37 -14.364,2.331C-13.332,-1.239 -9.563,-0.668 -4.891,-0.668L31.726,-0.668C36.06,-0.668 38.845,-1.221 40.095,2.014C40.774,3.777 40.409,7.482 40.409,10.381L40.409,61.995C40.409,66.767 40.905,70.53 38.04,71.939C35.077,73.395 30.07,71.832 26.046,72.413L0,72.413Z" style="fill:rgb(26,23,27);"/>
            </g>
        </g>
        <g transform="matrix(4.16667,0,0,4.16667,0,0)">
            <g transform="matrix(1,0,0,1,718.783,352.062)">
                <path d="M0,-14.456C-0.683,-13.386 -1.328,-12.53 -1.577,-12.143C-2.448,-10.786 -3.961,-8.762 -4.521,-7.2C-6.285,-2.303 -2.11,2.382 3.261,1.738C6.521,1.348 9.388,-1.444 9.36,-5.097C9.343,-7.43 8.338,-8.361 7.257,-10.041C5.744,-12.386 5.701,-12.69 4.313,-14.878C3.823,-15.647 3.068,-16.838 1.997,-16.665C0.85,-16.478 0.455,-15.172 0,-14.456" style="fill:white;"/>
            </g>
        </g>
        <g transform="matrix(4.16667,0,0,4.16667,0,0)">
            <g transform="matrix(1,0,0,1,721.097,352.264)">
                <path d="M0,-12.871C0.612,-11.821 1.31,-10.787 2,-9.716C3.09,-8.019 5.363,-5.582 3.576,-2.986C1.521,0 -4.56,-1.161 -4.522,-5.299C-4.508,-6.889 -3.19,-8.126 -2.419,-9.294C-1.557,-10.6 -1.018,-11.914 0,-12.871" style="fill:rgb(26,23,27);"/>
            </g>
        </g>
        <g transform="matrix(4.16667,0,0,4.16667,0,0)">
            <g transform="matrix(1,0,0,1,720.387,380.026)">
                <path d="M0,-4.51C4.532,-5.51 4.234,1 0.61,1C-2.016,1 -3.759,-3.688 0,-4.51" style="fill:white;"/>
            </g>
        </g>
        <g transform="matrix(4.16667,0,0,4.16667,0,0)">
            <g transform="matrix(1,0,0,1,732.619,371.589)">
                <path d="M0,12.767C3.053,12.697 6.915,10.121 5.995,5.084C5.434,2.027 2.125,-0.168 -1.384,0.474C-8.502,1.778 -7.658,12.935 0,12.767" style="fill:white;"/>
            </g>
        </g>
        <g transform="matrix(4.16667,0,0,4.16667,0,0)">
            <g transform="matrix(1,0,0,1,732.006,379.607)">
                <path d="M0,-3.394C3.41,-4.146 3.186,0.752 0.459,0.752C-1.517,0.752 -2.828,-2.775 0,-3.394" style="fill:rgb(26,23,27);"/>
            </g>
        </g>
        <g transform="matrix(4.16667,0,0,4.16667,0,0)">
            <g transform="matrix(1,0,0,1,709.42,371.588)">
                <path d="M0,12.768C3.052,12.698 6.915,10.121 5.995,5.084C5.434,2.027 2.125,-0.168 -1.384,0.475C-8.502,1.779 -7.658,12.936 0,12.768" style="fill:white;"/>
            </g>
        </g>
        <g transform="matrix(4.16667,0,0,4.16667,0,0)">
            <g transform="matrix(1,0,0,1,708.807,379.608)">
                <path d="M0,-3.395C3.41,-4.147 3.187,0.752 0.46,0.752C-1.517,0.752 -2.828,-2.775 0,-3.395" style="fill:rgb(26,23,27);"/>
            </g>
        </g>
    </g>
</svg>
