<?xml version="1.0" encoding="UTF-8" standalone="no"?>
<!DOCTYPE svg PUBLIC "-//W3C//DTD SVG 1.1//EN" "http://www.w3.org/Graphics/SVG/1.1/DTD/svg11.dtd">
<svg width="100%" height="100%" viewBox="0 0 162 300" version="1.1" xmlns="http://www.w3.org/2000/svg" xmlns:xlink="http://www.w3.org/1999/xlink" xml:space="preserve" xmlns:serif="http://www.serif.com/" style="fill-rule:evenodd;clip-rule:evenodd;stroke-linejoin:round;stroke-miterlimit:2;">
    <g transform="matrix(1,0,0,1,-2058.48,-1358.02)">
        <g transform="matrix(4.16667,0,0,4.16667,0,0)">
            <g transform="matrix(1,0,0,1,513.496,332.549)">
                <path d="M0,45.54C2.089,45.492 4.733,43.728 4.104,40.281C3.719,38.188 1.454,36.686 -0.947,37.126C-5.819,38.019 -5.242,45.655 0,45.54M-2.313,7.89C-2.996,8.96 -3.642,9.815 -3.891,10.202C-4.762,11.56 -6.274,13.584 -6.835,15.145C-8.599,20.043 -4.424,24.727 0.947,24.084C4.207,23.693 7.074,20.901 7.047,17.249C7.029,14.916 6.024,13.984 4.943,12.305C3.431,9.96 3.388,9.655 2,7.468C1.51,6.698 0.755,5.508 -0.316,5.681C-1.464,5.867 -1.858,7.174 -2.313,7.89M-19.351,-6.624L19.245,-6.624L19.245,42.91C19.245,44.097 19.464,45.517 19.245,46.17C18.966,47.012 16.354,48.057 15.25,48.589C11,50.634 5.837,52.164 -0.105,52.164C-8.45,52.164 -14.555,49.508 -19.454,46.274L-19.454,-6.31C-19.465,-6.458 -19.473,-6.606 -19.351,-6.624" style="fill:rgb(26,23,27);"/>
            </g>
        </g>
        <g transform="matrix(4.16667,0,0,4.16667,0,0)">
            <g transform="matrix(1,0,0,1,513.496,355.097)">
                <path d="M0,-12.871C0.612,-11.821 1.31,-10.787 2,-9.716C3.09,-8.019 5.363,-5.582 3.576,-2.986C1.521,0 -4.56,-1.161 -4.522,-5.299C-4.508,-6.889 -3.19,-8.126 -2.419,-9.294C-1.557,-10.6 -1.018,-11.914 0,-12.871" style="fill:rgb(26,23,27);"/>
            </g>
        </g>
        <g transform="matrix(4.16667,0,0,4.16667,0,0)">
            <g transform="matrix(1,0,0,1,513.076,374.839)">
                <path d="M0,-2.323C2.334,-2.838 2.181,0.515 0.314,0.515C-1.038,0.515 -1.936,-1.899 0,-2.323" style="fill:rgb(26,23,27);"/>
            </g>
        </g>
        <g transform="matrix(4.16667,0,0,4.16667,0,0)">
            <g transform="matrix(-1,0,0,1,1026.88,-399.53)">
                <rect x="494.042" y="791.195" width="38.796" height="6.14" style="fill:rgb(226,0,26);"/>
            </g>
        </g>
    </g>
</svg>
