<?xml version="1.0" encoding="UTF-8" standalone="no"?>
<!DOCTYPE svg PUBLIC "-//W3C//DTD SVG 1.1//EN" "http://www.w3.org/Graphics/SVG/1.1/DTD/svg11.dtd">
<svg width="100%" height="100%" viewBox="0 0 266 304" version="1.1" xmlns="http://www.w3.org/2000/svg" xmlns:xlink="http://www.w3.org/1999/xlink" xml:space="preserve" xmlns:serif="http://www.serif.com/" style="fill-rule:evenodd;clip-rule:evenodd;stroke-linejoin:round;stroke-miterlimit:2;">
    <g transform="matrix(1,0,0,1,-21.635,-62.3015)">
        <g>
            <g transform="matrix(4.16667,0,0,4.16667,166.168,62.0349)">
                <path d="M0,11.766C-8.116,11.953 -17.017,11.953 -25.132,11.766C-25.475,11.683 -25.196,11.057 -25.132,10.644C-24.276,5.11 -19.495,0.533 -13.576,0.098C-9.713,-0.187 -6.314,1.355 -4.151,3.351C-1.918,5.412 -0.404,8.181 0,11.766" style="fill:rgb(26,22,25);"/>
            </g>
            <g transform="matrix(4.16667,0,0,4.16667,70.7991,142.007)">
                <path d="M0,-5.183L20.645,-5.183C19.928,-3.833 18.41,-2.781 16.83,-1.93C14.757,-0.814 12.445,0 9.201,-0.246C5.201,-0.55 2.136,-2.597 0.112,-4.847C0.053,-4.937 -0.004,-5.029 0,-5.183" style="fill:rgb(26,22,25);"/>
            </g>
            <g transform="matrix(4.16667,0,0,4.16667,166.168,189.641)">
                <path d="M0,-15.381C0.79,-6.669 -4.578,-0.848 -11.332,-0.235C-15.416,0.136 -18.792,-1.312 -21.094,-3.377C-24.063,-6.041 -25.562,-9.564 -25.357,-15.381C-25.257,-15.45 -25.156,-15.517 -25.132,-15.381C-22.521,-12.159 -17.854,-9.418 -12.566,-9.435C-8.074,-9.449 -3.865,-11.521 -1.234,-14.259C-0.857,-14.652 -0.586,-15.324 0,-15.381" style="fill:rgb(26,22,25);"/>
            </g>
            <g transform="matrix(4.16667,0,0,4.16667,263.874,335.459)">
                <path d="M0,-32.426C-0.207,-31.672 -0.95,-31.235 -1.459,-30.743C-2.975,-29.275 -4.588,-27.694 -6.171,-26.143C-4.82,-24.278 -3.005,-22.877 -1.571,-21.094C0.07,-22.693 1.708,-24.26 3.365,-25.919C3.868,-26.421 4.289,-27.176 5.049,-27.377C7.98,-20.396 0.345,-12.944 -6.62,-15.933C-11.841,-11.08 -17.41,-5.255 -22.776,0.111C-23.719,1.053 -24.761,2.417 -26.255,2.468C-28.241,2.534 -30.315,0.498 -29.62,-1.908C-29.373,-2.765 -28.219,-3.738 -27.488,-4.489C-22.381,-9.742 -16.267,-15.842 -11.444,-20.758C-14.047,-28.254 -7.837,-34.96 0,-32.426" style="fill:rgb(26,22,25);"/>
            </g>
            <g transform="matrix(4.16667,0,0,4.16667,80.6174,365.998)">
                <path d="M0,-39.98C0.262,-32.275 0.037,-24.085 0.112,-16.194C4.974,-15.932 10.322,-16.157 15.371,-16.082L15.371,-39.98C17.354,-39.494 18.989,-38.662 20.757,-37.96L20.757,-24.721C20.757,-23.267 21.05,-21.523 20.757,-20.345C20.639,-19.872 20.171,-19.539 19.634,-18.999C18.546,-17.901 17.181,-16.424 16.156,-15.409C14.146,-13.416 11.372,-11.787 11.332,-8.453C11.284,-4.541 15.507,-0.873 19.858,-2.73C21.786,-3.553 23.457,-5.656 25.021,-7.218C26.438,-8.637 27.604,-10.223 29.171,-11.481C29.229,-11.529 29.586,-12.004 29.732,-11.594L29.732,-0.262C15.333,0 0.449,-0.224 -14.137,-0.15C-14.063,-5.423 -14.286,-10.995 -14.024,-16.082L-5.273,-16.082L-5.273,-37.96C-3.592,-38.635 -1.548,-39.544 0,-39.98" style="fill:rgb(26,22,25);"/>
            </g>
            <g transform="matrix(4.16667,0,0,4.16667,90.4361,290.107)">
                <path d="M0,-19.859C1.108,-18.875 2.767,-16.452 4.038,-14.81C4.299,-14.474 5.172,-13.242 5.272,-13.239C5.587,-13.229 6.331,-14.557 6.619,-14.922C7.923,-16.568 9.425,-18.39 10.771,-19.859C10.696,-13.276 10.92,-6.395 10.658,0L0.112,0C-0.149,-6.395 0.074,-13.276 0,-19.859" style="fill:rgb(26,22,25);"/>
            </g>
            <g transform="matrix(4.16667,0,0,4.16667,48.8303,290.7)">
                <path d="M0,-18.991C0.091,-18.97 0.111,-18.878 0.224,-18.879L0.224,-0.254C-1.765,0 -4.222,-0.212 -6.396,-0.142C-6.657,-5.453 -6.434,-11.249 -6.508,-16.747C-4.325,-17.481 -2.154,-18.228 0,-18.991" style="fill:rgb(26,22,25);"/>
            </g>
            <g transform="matrix(-3.30086,2.54273,2.54273,3.30086,219.158,257.799)">
                <path d="M1.349,-15.044C-0.046,-13.119 -1.243,-11.167 -2.526,-9.227C-1.08,-8.202 0.435,-6.314 1.349,-4.564C4.281,-4.141 7.217,-3.749 10.161,-3.422C7.537,-7.254 4.234,-11.177 1.349,-15.044" style="fill:rgb(26,22,25);"/>
            </g>
        </g>
    </g>
</svg>
