<?xml version="1.0" encoding="UTF-8" standalone="no"?>
<!DOCTYPE svg PUBLIC "-//W3C//DTD SVG 1.1//EN" "http://www.w3.org/Graphics/SVG/1.1/DTD/svg11.dtd">
<svg width="100%" height="100%" viewBox="0 0 268 323" version="1.1" xmlns="http://www.w3.org/2000/svg" xmlns:xlink="http://www.w3.org/1999/xlink" xml:space="preserve" xmlns:serif="http://www.serif.com/" style="fill-rule:evenodd;clip-rule:evenodd;stroke-linejoin:round;stroke-miterlimit:2;">
    <g transform="matrix(1,0,0,1,-2177.75,-4374.41)">
        <g transform="matrix(4.16667,0,0,4.16667,0,0)">
            <g transform="matrix(1,0,0,1,533.295,1104.24)">
                <path d="M0,-7.249C-0.865,-8.697 -1.775,-10.28 -2.652,-11.35C-2.881,-11.353 -2.799,-11.123 -2.895,-10.988C-4.238,-9.073 -7.568,-5.091 -7.477,-2.063C-7.291,4.104 2.672,3.823 2.051,-2.787C1.896,-4.432 0.826,-5.868 0,-7.249" style="fill:rgb(26,23,27);fill-rule:nonzero;"/>
            </g>
        </g>
        <g transform="matrix(4.16667,0,0,4.16667,0,0)">
            <g transform="matrix(1,0,0,1,555.365,1104.15)">
                <path d="M0,-7.281C-0.869,-8.72 -1.662,-10.223 -2.773,-11.26C-3.559,-9.869 -4.592,-8.663 -5.428,-7.281C-6.117,-6.14 -7.152,-4.44 -7.357,-2.939C-7.691,-0.494 -6.5,1.083 -5.186,1.885C-1.754,3.979 2.707,1.191 2.049,-3.06C1.836,-4.441 0.752,-6.031 0,-7.281" style="fill:rgb(26,23,27);fill-rule:nonzero;"/>
            </g>
        </g>
        <g transform="matrix(4.16667,0,0,4.16667,0,0)">
            <g transform="matrix(1,0,0,1,541.857,1120.1)">
                <path d="M0,-15.27L-0.24,-15.27C-0.314,-15.263 -0.385,-15.252 -0.361,-15.149C-1.297,-13.887 -2.17,-12.591 -3.014,-11.17C-3.895,-9.691 -5.262,-7.686 -4.945,-5.501C-4.145,0 4.832,-0.436 4.582,-6.466C4.51,-8.226 3.434,-9.838 2.654,-11.17C1.801,-12.624 0.822,-13.887 0,-15.27" style="fill:rgb(26,23,27);fill-rule:nonzero;"/>
            </g>
        </g>
        <g transform="matrix(4.16667,0,0,4.16667,0,0)">
            <g transform="matrix(1,0,0,1,585.631,1112.63)">
                <path d="M0,-48.324C0,-48.324 -0.148,-49.957 -0.398,-50.85C-0.648,-51.744 -1.779,-53.239 -2.181,-53.813C-6.897,-60.559 -9.258,-61.951 -25.747,-62.744C-31.514,-63.024 -36.381,-61.346 -40.226,-57.764C-45.076,-53.246 -46.903,-46.888 -47.414,-43.486C-52.013,-42.644 -55.599,-40.369 -58.125,-37.474C-60.986,-34.194 -63.223,-29.656 -62.949,-23.365C-50.566,-23.164 -37.342,-23.165 -24.959,-23.365C-24.744,-29.684 -26.906,-34.168 -29.783,-37.474C-32.291,-40.357 -36.004,-42.676 -40.396,-43.505C-40.682,-43.558 -40.987,-43.574 -41.289,-43.613C-40.745,-46.136 -39.328,-50.399 -36.136,-53.374C-34.466,-54.929 -32.471,-55.943 -30.189,-56.429C-27.038,-56.596 -23.514,-56.409 -20.498,-56.409C-20.357,-56.409 -20.228,-56.403 -20.09,-56.402C-18.032,-56.246 -16.391,-56.066 -15.051,-55.837C-13.93,-55.551 -12.93,-55.151 -12.057,-54.599C-9.088,-52.726 -6.465,-49.153 -6.146,-44.47C-5.822,-39.701 -6.146,-34.708 -6.146,-29.757L-6.146,14.503C-5.322,14.7 1.109,14.507 1.109,14.507C1.13,0.258 0.581,-43.553 0,-48.324" style="fill:rgb(26,23,27);fill-rule:nonzero;"/>
            </g>
        </g>
    </g>
</svg>
