<?xml version="1.0" encoding="UTF-8" standalone="no"?>
<!DOCTYPE svg PUBLIC "-//W3C//DTD SVG 1.1//EN" "http://www.w3.org/Graphics/SVG/1.1/DTD/svg11.dtd">
<svg width="100%" height="100%" viewBox="0 0 340 340" version="1.1" xmlns="http://www.w3.org/2000/svg" xmlns:xlink="http://www.w3.org/1999/xlink" xml:space="preserve" xmlns:serif="http://www.serif.com/" style="fill-rule:evenodd;clip-rule:evenodd;stroke-linejoin:round;stroke-miterlimit:2;">
    <g transform="matrix(1,0,0,1,-2965.98,-196.092)">
        <g transform="matrix(4.16667,0,0,4.16667,0,0)">
            <g transform="matrix(1,0,0,1,762.222,120.501)">
                <path d="M0,-71.403C0.22,-70.528 0.075,-69.526 0.12,-68.411C0.193,-66.543 -0.054,-63.961 0.479,-62.906C0.707,-62.451 2.354,-61.376 3.11,-61.35C4.089,-61.316 6.12,-62.805 6.942,-63.264C7.491,-63.573 8.114,-64.005 8.737,-64.342C9.403,-64.703 10.259,-65.195 10.65,-65.18C11.331,-65.153 11.894,-64.325 12.326,-63.863C12.971,-63.177 13.235,-62.835 13.763,-62.307C14.555,-61.515 16.457,-60.294 16.517,-59.196C16.567,-58.233 15.096,-56.575 14.481,-55.486C14.156,-54.911 13.881,-54.167 13.523,-53.571C13.079,-52.828 12.574,-52.388 12.566,-51.776C12.552,-50.732 13.57,-49.877 14.123,-48.903C16.629,-48.217 20.383,-48.78 22.739,-47.946C23.099,-46.778 23.383,-45.525 23.696,-44.116C23.974,-42.869 24.671,-41.098 24.416,-40.166C24.185,-39.332 21.428,-38.136 20.704,-37.773C19.72,-37.278 17.32,-36.622 16.874,-35.619C16.574,-34.939 16.572,-32.968 16.755,-32.387C17.045,-31.461 19.221,-30.17 20.106,-29.515C20.688,-29.085 23.274,-27.643 23.458,-26.762C23.642,-25.873 22.548,-23.946 22.26,-23.172C21.776,-21.864 21.585,-20.941 21.063,-19.701C16.724,-23.66 12.682,-27.915 8.616,-32.147C9.83,-40.736 6.452,-47.85 2.033,-51.895C-1.735,-55.345 -6.928,-57.858 -13.046,-57.88C-22.021,-57.911 -29.304,-52.525 -32.674,-45.911C-34.397,-42.529 -35.732,-38.06 -34.947,-32.626C-34.193,-27.407 -31.837,-23.39 -28.245,-19.941C-24.328,-16.176 -19.111,-13.257 -11.012,-13.837C-10.38,-13.881 -9.6,-14.316 -8.857,-14.195C-8,-14.055 -6.135,-11.831 -5.506,-11.203C-4.92,-10.617 -4.435,-10.011 -3.95,-9.528C-3.442,-9.02 -2.712,-8.649 -2.514,-7.852C-3.415,-7.676 -4.146,-7.329 -4.668,-6.775C-5.017,-4.809 -5.516,-2.676 -5.985,-0.551C-6.356,1.134 -6.365,1.336 -8.259,1.602C-9.828,1.824 -11.797,2.044 -13.763,1.962C-14.684,0.988 -14.925,-0.57 -15.439,-2.108C-15.89,-3.449 -16.271,-5.585 -16.996,-6.176C-17.456,-6.552 -18.353,-6.59 -19.149,-6.775C-20.092,-6.993 -20.848,-7.326 -21.424,-7.254C-22.526,-7.116 -23.809,-5.368 -24.774,-4.382C-25.749,-3.387 -27.043,-1.477 -27.887,-1.389C-28.807,-1.295 -30.323,-2.664 -31.238,-3.185C-32.313,-3.797 -34.035,-4.199 -34.35,-5.219C-34.635,-6.142 -33.823,-7.889 -33.511,-9.168C-33.175,-10.551 -32.463,-12.309 -32.555,-13.118C-32.64,-13.874 -33.696,-14.825 -34.109,-15.272C-34.654,-15.862 -35.395,-16.811 -36.145,-16.948C-36.998,-17.104 -38.768,-16.544 -40.213,-16.23C-41.293,-15.996 -43.059,-15.139 -44.044,-15.392C-44.856,-15.601 -45.684,-17.736 -46.077,-18.504C-46.314,-18.964 -46.607,-19.585 -46.916,-20.179C-47.241,-20.805 -47.666,-21.462 -47.635,-21.975C-47.564,-23.132 -45.771,-24.101 -44.642,-25.206C-44.195,-25.643 -43.654,-26.233 -43.086,-26.762C-42.483,-27.322 -41.744,-27.896 -41.649,-28.437C-41.55,-29.017 -41.879,-29.861 -42.01,-30.592C-42.12,-31.207 -42.314,-31.885 -42.369,-32.626C-43.433,-33.427 -44.831,-33.924 -46.198,-34.422C-47.583,-34.924 -49.069,-35.293 -50.387,-35.858C-50.36,-38.703 -50.064,-41.28 -49.55,-43.637C-47.782,-44.379 -45.498,-44.695 -43.445,-45.072C-42.678,-45.215 -41.865,-45.18 -41.411,-45.432C-40.838,-45.75 -40.629,-46.516 -40.333,-47.227C-40.037,-47.941 -39.573,-48.596 -39.615,-49.382C-39.652,-50.077 -40.169,-50.621 -40.693,-51.297C-41.558,-52.415 -42.316,-53.329 -43.206,-54.528C-43.641,-55.113 -44.27,-55.907 -44.282,-56.323C-44.318,-57.359 -42.442,-58.979 -41.89,-59.675C-41.489,-60.179 -40.102,-62.548 -39.257,-62.667C-38.502,-62.772 -36.273,-61.459 -35.427,-61.111C-34.847,-60.872 -34.16,-60.539 -33.511,-60.273C-31.712,-59.534 -31.057,-59.578 -29.562,-60.632C-28.931,-61.078 -28.454,-61.349 -28.245,-62.068C-27.913,-63.215 -28.382,-64.738 -28.485,-66.137C-28.582,-67.445 -28.779,-68.739 -28.604,-70.207C-26.947,-71.076 -25.079,-71.665 -23.098,-72.361C-22.424,-72.599 -21.576,-72.928 -21.064,-72.84C-20.157,-72.682 -18.869,-70.181 -18.312,-69.368C-17.944,-68.835 -17.443,-68.227 -16.996,-67.573C-16.54,-66.906 -16.2,-66.097 -15.679,-65.898C-15.23,-65.728 -13.721,-65.623 -12.808,-65.898C-11.81,-66.197 -11.148,-68.314 -10.533,-69.488C-9.716,-71.046 -9.091,-72.054 -8.378,-73.198C-8.313,-73.337 -8.114,-73.447 -7.901,-73.438C-5.613,-73.333 -1.981,-72.112 0,-71.403" style="fill:rgb(26,23,27);"/>
            </g>
        </g>
        <g transform="matrix(4.16667,0,0,4.16667,0,0)">
            <g transform="matrix(1,0,0,1,738.164,118.382)">
                <path d="M0,-37.33C0.902,-37.189 1.361,-36.329 1.916,-35.774C2.474,-35.216 3.109,-34.7 3.711,-34.099C4.98,-32.83 6.027,-30.919 8.497,-31.106C10.062,-31.225 10.915,-32.181 11.85,-33.141C13.009,-34.332 14.526,-35.516 14.243,-37.689C13.803,-41.053 8.88,-42.869 7.78,-45.707C15.632,-48.465 23.395,-43.102 24.178,-35.893C24.399,-33.851 23.901,-32.081 24.296,-30.149C24.711,-28.117 26.279,-26.611 27.528,-25.362C35.551,-17.338 43.29,-9.479 51.226,-1.545C52.503,-0.267 54.322,1.275 54.814,2.763C56.2,6.951 52.585,11.135 48.112,9.825C46.566,9.372 45.049,7.718 43.685,6.354C35.689,-1.641 28.507,-9.062 20.466,-17.104C18.527,-19.043 17.088,-21.132 14.243,-21.532C12.682,-21.751 10.976,-21.395 9.575,-21.652C6.1,-22.29 3.269,-24.374 1.557,-26.917C-0.118,-29.406 -1.415,-33.195 0,-37.33" style="fill:rgb(26,23,27);"/>
            </g>
        </g>
    </g>
</svg>
