<?xml version="1.0" encoding="UTF-8" standalone="no"?>
<!DOCTYPE svg PUBLIC "-//W3C//DTD SVG 1.1//EN" "http://www.w3.org/Graphics/SVG/1.1/DTD/svg11.dtd">
<svg width="100%" height="100%" viewBox="0 0 221 302" version="1.1" xmlns="http://www.w3.org/2000/svg" xmlns:xlink="http://www.w3.org/1999/xlink" xml:space="preserve" xmlns:serif="http://www.serif.com/" style="fill-rule:evenodd;clip-rule:evenodd;stroke-linejoin:round;stroke-miterlimit:2;">
    <g transform="matrix(1,0,0,1,-3038.7,-2569.94)">
        <g transform="matrix(4.16667,0,0,4.16667,0,0)">
            <g transform="matrix(1,0,0,1,739.861,676.812)">
                <path d="M0,-47.646C1.688,-47.894 2.98,-47.301 4.246,-47.646C4.801,-47.798 5.1,-48.404 5.586,-48.764C6.168,-49.193 6.646,-49.291 7.15,-49.658L7.15,-51.334C5.719,-51.498 4.285,-51.319 4.246,-52.675C4.199,-54.337 6.463,-54.015 8.604,-54.015C10.84,-54.015 13.021,-54.316 12.736,-52.451C12.574,-51.376 11.631,-51.382 9.943,-51.446L9.943,-49.769C10.363,-49.329 10.92,-49.106 11.396,-48.764C11.9,-48.404 12.262,-48.025 12.736,-47.646C18.408,-47.544 21.229,-44.593 22.346,-39.938C22.807,-39.692 23.791,-39.969 24.021,-39.492C24.172,-38.853 24.236,-37.744 23.91,-37.256C22.814,-36.867 21.25,-37.033 19.775,-37.033C18.301,-37.033 16.736,-36.867 15.643,-37.256C15.143,-38.283 15.313,-40.16 16.76,-39.938C15.98,-41.263 14.809,-42.69 12.85,-42.285C11.998,-42.108 11.215,-40.752 10.168,-40.384C7.471,-39.437 5.625,-40.982 4.357,-42.285L0,-42.285L0,-20.611C12.023,-20.406 24.582,-20.498 37.205,-20.498C38.578,-20.498 41.516,-20.696 42.008,-20.051C42.395,-19.548 42.641,-15.649 41.896,-14.912C41.232,-14.253 40.242,-14.724 38.992,-14.577C38.418,-13.594 38.355,-12.461 38.1,-11.449C37.318,-8.378 36.529,-5.388 35.641,-1.953C34.547,2.271 33.842,6.628 30.949,9.333C29.432,10.75 27.197,12.009 24.469,12.237C21.711,12.465 18.902,12.237 15.977,12.237L-5.139,12.237C-7.123,12.237 -8.99,12.51 -9.83,11.678C-10.904,10.614 -10.5,5.981 -10.5,3.411L-10.5,-54.574C-10.5,-57.248 -10.775,-59.503 -8.713,-59.936C-7.752,-60.138 -6.389,-59.936 -4.914,-59.936C-2.59,-59.936 -0.887,-60.156 -0.223,-58.82C0.428,-57.511 0,-55.25 0,-53.345L0,-47.646Z" style="fill:rgb(26,23,27);"/>
            </g>
        </g>
        <g transform="matrix(4.16667,0,0,4.16667,0,0)">
            <g transform="matrix(1,0,0,1,759.078,650.676)">
                <path d="M0,-7.992C1.086,-8.43 1.66,-6.67 2.123,-5.758C2.693,-4.635 3.328,-3.493 3.352,-2.741C3.42,-0.679 1.635,0.438 0,0.276C-1.51,0.125 -2.568,-1.129 -2.568,-2.63C-2.568,-3.513 -1.889,-4.784 -1.564,-5.423C-1.146,-6.242 -0.652,-7.19 -0.223,-7.769C-0.143,-7.878 -0.139,-7.935 0,-7.992" style="fill:rgb(26,23,27);"/>
            </g>
        </g>
    </g>
</svg>
