<?xml version="1.0" encoding="UTF-8" standalone="no"?>
<!DOCTYPE svg PUBLIC "-//W3C//DTD SVG 1.1//EN" "http://www.w3.org/Graphics/SVG/1.1/DTD/svg11.dtd">
<svg width="100%" height="100%" viewBox="0 0 209 303" version="1.1" xmlns="http://www.w3.org/2000/svg" xmlns:xlink="http://www.w3.org/1999/xlink" xml:space="preserve" xmlns:serif="http://www.serif.com/" style="fill-rule:evenodd;clip-rule:evenodd;stroke-linejoin:round;stroke-miterlimit:2;">
    <g transform="matrix(1,0,0,1,-1292.3,-808.786)">
        <g transform="matrix(4.16667,0,0,4.16667,0,0)">
            <g transform="matrix(1,0,0,1,329.448,226.613)">
                <path d="M0,-4.307C-3.213,-0.668 -6.45,4.026 -9.751,8.029C-8.482,8.992 -6.852,9.594 -5.404,10.379C-6.615,12.614 -8.304,14.371 -9.751,16.37C-11.724,14.52 -13.011,12.045 -13.98,9.204C-14.989,6.248 -15.273,3.411 -15.273,-0.9L-15.273,-23.575L-19.15,-23.575C-19.345,-26.286 -19.345,-29.794 -19.15,-32.504L11.513,-32.504L11.513,-23.575L7.753,-23.575C7.544,-20.974 7.637,-17.535 7.637,-14.059C7.637,-9.944 7.037,-5.308 8.106,-2.662C8.814,-0.911 10.573,0.879 12.806,1.215C15.625,1.639 18.677,0.896 21.853,1.215L21.853,-2.545C24.557,-2.817 27.765,-2.585 30.663,-2.662C30.938,7.324 30.703,17.819 30.781,28.002C28.075,28.197 24.557,28.197 21.853,28.002L21.853,24.36C17.109,24.046 11.915,24.374 7.166,24.242C2.451,24.11 -1.552,22.875 -4.347,20.953C-2.799,16.743 -1.057,12.729 0.47,8.499C-0.415,7.464 -1.954,7.085 -3.054,6.267C-2.067,2.711 -1.069,-0.835 0,-4.307" style="fill:rgb(26,23,27);"/>
            </g>
        </g>
        <g transform="matrix(4.16667,0,0,4.16667,0,0)">
            <g transform="matrix(1,0,0,1,321.224,266.706)">
                <path d="M0,-16.833C-0.022,-16.933 0.045,-16.944 0.117,-16.951C0.212,-16.929 0.235,-16.833 0.353,-16.833C1.872,-14.152 3.405,-11.887 4.699,-8.844C5.379,-7.247 6.017,-5.378 5.287,-3.439C4.565,-1.523 2.483,-0.141 0.47,-0.032C-2.344,0.118 -5.399,-1.993 -5.405,-5.437C-5.408,-7.615 -4.05,-9.723 -3.173,-11.429C-2.13,-13.457 -1.226,-15.039 0,-16.833" style="fill:rgb(26,23,27);"/>
            </g>
        </g>
    </g>
</svg>
