<?xml version="1.0" encoding="UTF-8" standalone="no"?>
<!DOCTYPE svg PUBLIC "-//W3C//DTD SVG 1.1//EN" "http://www.w3.org/Graphics/SVG/1.1/DTD/svg11.dtd">
<svg width="100%" height="100%" viewBox="0 0 227 289" version="1.1" xmlns="http://www.w3.org/2000/svg" xmlns:xlink="http://www.w3.org/1999/xlink" xml:space="preserve" xmlns:serif="http://www.serif.com/" style="fill-rule:evenodd;clip-rule:evenodd;stroke-linejoin:round;stroke-miterlimit:2;">
    <g transform="matrix(1,0,0,1,-1190.9,-3176.26)">
        <g transform="matrix(4.16667,0,0,4.16667,0,0)">
            <g transform="matrix(1,0,0,1,328.952,768.241)">
                <path d="M0,0.465C0.037,3.75 4.34,5.34 6.479,2.895C8.843,0.193 6.348,-3.725 3.008,-3.121C1.312,-2.815 -0.021,-1.491 0,0.465M-8.561,0.35C-8.578,1.855 -7.598,3.493 -6.131,3.937C-3.836,4.63 -2.039,3.257 -1.504,1.737C-0.529,-1.026 -2.775,-3.606 -5.553,-3.121C-7.391,-2.8 -8.537,-1.613 -8.561,0.35M-22.097,0.581C-22.097,2.2 -22.115,3.338 -21.75,3.704C-21.027,4.427 -17.816,4.051 -15.965,4.051C-14.322,4.051 -10.943,4.468 -10.181,3.704C-9.537,3.062 -9.555,-2.264 -10.181,-2.889C-10.872,-3.581 -14.387,-3.237 -15.502,-3.237C-17.676,-3.237 -20.193,-3.557 -21.287,-3.121C-22.417,-2.671 -22.097,-1.4 -22.097,0.581M-30.426,-1.155C-31.797,2.13 -28.676,4.804 -25.799,3.937C-24.267,3.473 -23.311,1.834 -23.369,0.234C-23.453,-2.044 -25.507,-3.559 -27.766,-3.121C-29.113,-2.86 -30.13,-1.864 -30.426,-1.155M-38.409,-2.081C-39.903,-0.409 -39.387,3.167 -36.905,3.937C-35.469,4.381 -33.807,3.884 -32.972,3.011C-30.488,0.411 -32.999,-3.723 -36.327,-3.121C-37.223,-2.96 -37.918,-2.629 -38.409,-2.081M8.678,6.597L-40.607,6.597L-40.607,0.118C-40.607,-2.394 -41.144,-5.395 -39.45,-5.782C-37.918,-6.132 -35.519,-5.782 -33.435,-5.782L2.661,-5.782C4.414,-5.782 7.698,-6.06 8.33,-5.436C9.105,-4.668 8.678,-1.078 8.678,0.465L8.678,6.597Z" style="fill:rgb(26,23,27);"/>
            </g>
        </g>
        <g transform="matrix(4.16667,0,0,4.16667,0,0)">
            <g transform="matrix(-0.329641,-0.944106,-0.944106,0.329641,310.603,765.624)">
                <path d="M-3.567,-5.078C-4.248,-5.108 -5.211,-4.559 -6.008,-4.349L-3.567,2.643C-2.813,2.309 -1.717,2.142 -1.203,1.693L-3.567,-5.078Z" style="fill:rgb(26,23,27);"/>
            </g>
        </g>
        <g transform="matrix(4.16667,0,0,4.16667,0,0)">
            <g transform="matrix(1,0,0,1,292.856,769.964)">
                <path d="M0,-2.415C1.234,-2.838 1.759,-2.13 1.735,-1.258C1.696,0.267 -0.66,0.423 -0.81,-1.142C-0.877,-1.847 -0.658,-2.188 0,-2.415" style="fill:rgb(26,23,27);"/>
            </g>
        </g>
        <g transform="matrix(4.16667,0,0,4.16667,0,0)">
            <g transform="matrix(1,0,0,1,302.922,769.832)">
                <path d="M0,-2.051C1.275,-0.25 -1.698,0.902 -2.198,-0.663C-2.622,-1.99 -1.192,-2.953 0,-2.051" style="fill:rgb(26,23,27);"/>
            </g>
        </g>
        <g transform="matrix(4.16667,0,0,4.16667,0,0)">
            <g transform="matrix(1,0,0,1,325.135,768.458)">
                <path d="M0,-0.561C0.513,0.465 -0.329,1.828 -1.62,1.406C-3.317,0.85 -1.651,-2.389 0,-0.561" style="fill:rgb(26,23,27);"/>
            </g>
        </g>
        <g transform="matrix(4.16667,0,0,4.16667,0,0)">
            <g transform="matrix(1,0,0,1,332.192,770.049)">
                <path d="M0,-2.5C0.423,-2.647 0.67,-2.686 0.926,-2.615C1.539,-2.448 2.368,-0.572 0.926,-0.186C-0.463,0.186 -1.631,-1.928 0,-2.5" style="fill:rgb(26,23,27);"/>
            </g>
        </g>
        <g transform="matrix(4.16667,0,0,4.16667,0,0)">
            <g transform="matrix(1,0,0,1,286.726,782.15)">
                <path d="M0,-4.766C1.223,-5.254 5.051,-4.882 6.825,-4.882L46.508,-4.882C48.207,-4.882 52.163,-5.181 52.871,-4.652C53.6,-4.105 53.53,-0.79 52.986,-0.255C52.289,0.432 48.416,0.092 46.508,0.092L6.016,0.092C4.224,0.092 0.523,0.488 -0.348,-0.255C-1.008,-0.817 -1.221,-4.093 -0.232,-4.652C-0.16,-4.691 -0.115,-4.722 0,-4.766" style="fill:rgb(26,23,27);"/>
            </g>
        </g>
        <g transform="matrix(4.16667,0,0,4.16667,0,0)">
            <g transform="matrix(1,0,0,1,322.821,787.402)">
                <path d="M0,34.176C0.039,35.255 0.937,35.266 1.852,35.332C3.442,35.447 5.015,35.331 4.858,33.944C4.709,32.615 2.373,32.615 1.041,33.018C0.434,33.203 -0.035,33.252 0,34.176M11.105,30.01C11.03,30.937 11.259,32.169 10.99,32.903C9.252,32.914 7.467,32.63 7.403,34.06C7.35,35.27 8.473,35.311 9.834,35.332C11.021,35.35 12.482,35.494 13.189,34.986C13.726,33.752 13.726,30.78 13.189,29.547C12.475,29.002 11.437,29.282 11.105,30.01M14.809,-2.73L14.809,31.745C14.809,33.207 15.026,35.69 14.461,36.258C13.824,36.899 10.335,36.605 8.561,36.605L-28.345,36.605C-29.987,36.605 -33.452,36.939 -34.129,36.258C-34.707,35.678 -34.477,33.348 -34.477,31.631L-34.477,-2.73C-17.791,-2.762 -1.664,-2.763 14.809,-2.73" style="fill:rgb(26,23,27);"/>
            </g>
        </g>
        <g transform="matrix(4.16667,0,0,4.16667,0,0)">
            <g transform="matrix(1,0,0,1,292.163,831.618)">
                <path d="M0,-5.181L41.764,-5.181C41.533,-4.194 42.216,-1.352 41.418,-0.553C40.863,0 38.037,-0.206 36.442,-0.206L5.09,-0.206C3.334,-0.206 0.757,-0.03 0.231,-0.553C-0.525,-1.306 0.084,-3.715 -0.116,-4.834C-0.127,-4.998 -0.135,-5.16 0,-5.181" style="fill:rgb(26,23,27);"/>
            </g>
        </g>
    </g>
</svg>
