<?xml version="1.0" encoding="UTF-8" standalone="no"?>
<!DOCTYPE svg PUBLIC "-//W3C//DTD SVG 1.1//EN" "http://www.w3.org/Graphics/SVG/1.1/DTD/svg11.dtd">
<svg width="100%" height="100%" viewBox="0 0 226 314" version="1.1" xmlns="http://www.w3.org/2000/svg" xmlns:xlink="http://www.w3.org/1999/xlink" xml:space="preserve" xmlns:serif="http://www.serif.com/" style="fill-rule:evenodd;clip-rule:evenodd;stroke-linejoin:round;stroke-miterlimit:2;">
    <g transform="matrix(1,0,0,1,-2115.48,-3171.66)">
        <g transform="matrix(4.16667,0,0,4.16667,0,0)">
            <g transform="matrix(1,0,0,1,514.352,765.288)">
                <path d="M0,4.753C3.92,4.665 3.299,-1.749 -0.885,-0.663C-3.938,0.201 -3.08,4.821 0,4.753M-6.521,-4.09L13.707,-4.09L13.707,8.843C6.58,8.232 -0.18,7.253 -6.631,5.968L-6.631,-3.757C-6.641,-3.915 -6.65,-4.071 -6.521,-4.09" style="fill:rgb(26,23,27);"/>
            </g>
        </g>
        <g transform="matrix(4.16667,0,0,4.16667,0,0)">
            <g transform="matrix(1,0,0,1,532.479,768.313)">
                <path d="M0,-0.372C-0.393,-0.214 -0.242,0.955 -0.109,1.286L9.838,1.286C10.061,0.955 9.9,0.243 9.949,-0.262C6.85,-0.517 3.281,-0.301 0,-0.372M-0.109,-4.573C-0.365,-4.237 -0.148,-3.433 -0.221,-2.915L9.838,-2.915C10.014,-3.258 10.014,-4.229 9.838,-4.573L-0.109,-4.573ZM-2.652,-7.115L29.402,-7.115L29.402,2.942C19.584,4.711 8.908,6.743 -2.762,5.928L-2.762,-6.782C-2.771,-6.94 -2.781,-7.097 -2.652,-7.115" style="fill:rgb(26,23,27);"/>
            </g>
        </g>
        <g transform="matrix(4.16667,0,0,4.16667,0,0)">
            <g transform="matrix(1,0,0,1,523.084,814.105)">
                <path d="M0,-31.463C-2.756,-29.191 -4.529,-26.878 -5.857,-23.173C-7.229,-19.353 -7.287,-14.984 -6.08,-11.126C-3.971,-4.386 1.564,0.729 9.174,1.807C13.184,2.374 17.473,1.718 20.891,-0.183C26.367,-3.228 31.447,-9.398 30.727,-18.642C30.379,-23.118 27.664,-27.816 25.201,-30.247C21.932,-33.473 16.709,-36.234 10.168,-35.553C5.645,-35.081 2.594,-33.603 0,-31.463M-15.254,-41.19C-7.059,-39.948 2.072,-37.984 11.605,-37.984C21.039,-37.984 29.994,-39.601 38.686,-40.747C38.943,-24.204 38.723,-7.183 38.797,9.544C21,9.727 2.432,9.727 -15.363,9.544L-15.363,-40.859C-15.373,-41.015 -15.383,-41.171 -15.254,-41.19" style="fill:rgb(26,23,27);"/>
            </g>
        </g>
        <g transform="matrix(4.16667,0,0,4.16667,0,0)">
            <g transform="matrix(1,0,0,1,533.584,810.656)">
                <path d="M0,-26.578C-3.434,-26.31 -6.52,-24.474 -8.4,-22.377C-10.658,-19.861 -12.186,-16.437 -11.826,-11.987C-11.342,-6.009 -6.205,-0.719 -0.221,-0.161C6.822,0.494 10.926,-3.129 13.484,-7.787C12.861,-9.217 11.719,-10.979 11.496,-12.982C11.195,-15.693 12.182,-17.829 13.043,-19.724C10.438,-23.734 6.889,-27.113 0,-26.578M1.326,-30.557L1.438,-30.557C7.332,-30.516 10.76,-28.367 13.596,-25.473C16.219,-22.795 18.664,-18.808 18.68,-13.425C18.695,-8.187 16.541,-4.265 13.816,-1.487C10.865,1.524 7.148,3.666 2.322,3.818C-2.809,3.979 -6.699,2.334 -10.059,-0.603C-13.494,-3.607 -16.35,-8.145 -15.807,-14.973C-15.451,-19.414 -13.145,-23.408 -10.5,-25.914C-9.203,-27.144 -7.463,-28.262 -5.525,-29.12C-3.553,-29.995 -1.281,-30.539 1.326,-30.557" style="fill:rgb(26,23,27);"/>
            </g>
        </g>
        <g transform="matrix(4.16667,0,0,4.16667,0,0)">
            <g transform="matrix(1,0,0,1,507.941,836.212)">
                <path d="M0,-10.905C17.943,-10.833 36.182,-11.053 53.939,-10.795L53.939,0.148L-0.221,0.148L-0.221,-10.574C-0.227,-10.762 -0.139,-10.86 0,-10.905" style="fill:rgb(26,23,27);"/>
            </g>
        </g>
    </g>
</svg>
