<?xml version="1.0" encoding="UTF-8" standalone="no"?>
<!DOCTYPE svg PUBLIC "-//W3C//DTD SVG 1.1//EN" "http://www.w3.org/Graphics/SVG/1.1/DTD/svg11.dtd">
<svg width="100%" height="100%" viewBox="0 0 537 296" version="1.1" xmlns="http://www.w3.org/2000/svg" xmlns:xlink="http://www.w3.org/1999/xlink" xml:space="preserve" xmlns:serif="http://www.serif.com/" style="fill-rule:evenodd;clip-rule:evenodd;stroke-linejoin:round;stroke-miterlimit:2;">
    <g transform="matrix(1,0,0,1,-1250.24,-224.456)">
        <g transform="matrix(4.16667,0,0,4.16667,0,0)">
            <g transform="matrix(1,0,0,1,351.158,76.2669)">
                <path d="M0,26.34C-0.355,28.536 -0.199,30.998 -0.199,34.485C-0.199,36.616 -0.994,41.546 1.39,41.041C3.032,40.693 2.384,36.096 2.384,33.889C2.384,30.704 2.669,27.874 1.986,25.943C1.365,25.675 0.121,25.556 0,26.34M-6.755,26.34C-7.109,28.466 -6.953,30.948 -6.953,34.286C-6.953,36.619 -7.752,41.19 -5.563,41.041C-3.639,40.909 -4.371,36.136 -4.371,33.889C-4.371,30.687 -4.084,27.883 -4.768,25.943C-5.389,25.675 -6.633,25.556 -6.755,26.34M0.993,-22.132C1.199,-20.591 1.548,-18.348 1.787,-16.173C2.221,-12.241 2.943,-8.682 0,-7.829L0,10.05C4.313,9.347 8.976,10.526 6.953,14.818C6.792,15.159 6.367,15.36 5.959,15.811C5.628,16.142 4.509,15.685 4.569,16.407C4.239,17.928 4.924,18.436 5.959,18.592C6.501,18.844 6.751,19.389 7.151,19.784L7.151,40.643C7.151,43.044 7.637,45.862 6.953,47.199C6.051,48.961 0.43,48.391 -1.987,48.391C-3.983,48.391 -9.928,49.03 -11.324,47.795C-12.931,46.372 -12.118,36.983 -12.118,34.088L-12.118,26.737C-12.118,24.317 -12.5,21.19 -11.919,19.784C-11.676,19.195 -11.047,18.808 -10.529,18.394C-9.816,17.823 -9.229,18.428 -9.337,17.003C-9.443,15.613 -11.256,16.188 -11.919,14.619C-13.636,10.562 -9.185,9.416 -4.967,10.05C-4.503,4.554 -4.9,-1.803 -4.768,-7.63C-5.19,-8.736 -6.574,-8.516 -6.953,-9.816C-7.309,-11.035 -6.582,-13.453 -6.358,-15.974C-6.136,-18.448 -6.12,-21.097 -5.563,-21.933C-4.151,-22.69 -0.741,-22.343 0.993,-22.132" style="fill:rgb(26,23,27);"/>
            </g>
        </g>
        <g transform="matrix(4.16667,0,0,4.16667,0,0)">
            <g transform="matrix(1,0,0,1,320.764,76.7879)">
                <path d="M0,25.819C-0.354,27.925 -0.199,30.352 -0.199,33.765C-0.199,36.098 -0.975,40.667 1.191,40.52C3.127,40.388 2.383,35.41 2.383,33.169C2.383,29.909 2.78,26.913 1.788,25.223C0.953,25.182 0.127,25.152 0,25.819M-6.357,25.223C-7.369,26.86 -6.953,30.033 -6.953,33.169C-6.953,35.477 -7.752,40.669 -5.563,40.52C-3.521,40.381 -4.371,35.486 -4.371,33.567C-4.371,30.449 -4.219,27.85 -4.569,25.62C-5.269,25.302 -5.491,24.947 -6.357,25.223M14.7,-22.057C15.391,-20.174 15.098,-17.462 15.098,-14.906C15.098,-12.402 15.39,-9.787 14.7,-7.952C12.957,-7.244 9.201,-7.494 7.151,-7.754C5.957,-7.619 6.623,-9.344 6.158,-9.939C4.585,-9.889 3.125,-9.952 1.788,-10.138C1.326,-3.978 1.72,3.038 1.589,9.529C5.276,9.218 8.077,9.796 7.35,13.9C6.811,14.154 6.778,14.917 6.158,15.091C6.117,15.778 4.684,15.073 4.768,15.886C4.098,18.298 6.468,17.56 7.151,19.065C7.762,20.41 7.35,23.727 7.35,26.216L7.35,40.52C7.35,43.07 7.572,46.15 6.754,47.075C5.401,48.606 0.141,47.87 -2.384,47.87C-4.857,47.87 -10.128,48.428 -11.324,47.075C-12.747,45.465 -11.919,36.982 -11.919,33.169L-11.919,26.018C-11.919,23.4 -12.376,20.507 -11.721,19.065C-11.242,18.009 -9.713,17.951 -9.337,17.277C-9.442,16.969 -9.2,16.511 -9.337,16.085C-9.718,14.899 -11.689,15.125 -11.919,13.105C-12.214,10.526 -10.06,8.912 -6.357,9.529C-5.894,3.172 -6.291,-4.046 -6.158,-10.734C-9.86,-11.186 -13.11,-11.069 -15.694,-9.939C-17.224,-9.271 -18.271,-7.646 -19.866,-7.952C-21.648,-9.081 -20.149,-11.136 -19.469,-12.323C-17.424,-15.885 -13.354,-19.725 -8.344,-20.269C-3.738,-20.769 1.019,-19.901 6.158,-20.269C6.634,-20.72 6.03,-22.251 6.953,-22.256C9.09,-22.49 12.877,-22.787 14.7,-22.057" style="fill:rgb(26,23,27);"/>
            </g>
        </g>
        <g transform="matrix(4.16667,0,0,4.16667,0,0)">
            <g transform="matrix(1,0,0,1,400.623,86.3911)">
                <path d="M0,-13.98C-4.184,-13.98 -8.978,-14.598 -10.33,-12.789C-10.559,-11.075 -10.726,-8.313 -10.33,-6.63L7.351,-6.63C7.248,-8.647 7.573,-11.091 7.152,-12.789C6.165,-14.375 2.965,-13.98 0,-13.98M12.714,-6.828C18.588,-5.915 26.123,-8.457 27.812,-3.253C28.462,-1.249 27.901,2.465 27.812,5.29L19.271,5.29C20.443,-0.461 12.229,-0.17 13.311,5.29L-16.091,5.29C-14.938,-0.358 -23.187,-0.29 -22.051,5.29C-24.904,5.163 -28.267,5.546 -30.792,5.091C-30.5,1.621 -31.332,-1.672 -30.395,-3.848C-28.455,-8.35 -21.572,-6.064 -15.693,-6.63C-15.05,-9.024 -15.873,-11.291 -15.495,-13.384C-14.985,-16.201 -12.243,-18.707 -9.337,-19.146C-7.058,-19.488 -3.94,-19.146 -1.192,-19.146C1.645,-19.146 4.607,-19.526 6.755,-19.146C9.559,-18.648 12.232,-15.958 12.714,-13.186C13.052,-11.242 12.466,-9.088 12.714,-6.828" style="fill:rgb(26,23,27);"/>
            </g>
        </g>
        <g transform="matrix(4.16667,0,0,4.16667,0,0)">
            <g transform="matrix(1,0,0,1,370.03,125.563)">
                <path d="M0,-31.498L8.344,-31.498C7.485,-25.889 15.337,-25.993 14.502,-31.498L43.705,-31.498C42.838,-25.94 50.743,-25.923 49.863,-31.498L58.404,-31.498L58.404,-10.64C58.404,-6.412 58.856,-2.255 55.624,-1.104C54.039,-0.54 51.325,-0.905 49.068,-0.905L15.893,-0.905C11.37,-0.905 3.866,0 1.589,-1.7C-1.174,-3.763 -0.397,-10.373 -0.397,-15.407L-0.397,-30.902C-0.406,-31.242 -0.25,-31.417 0,-31.498" style="fill:rgb(26,23,27);"/>
            </g>
        </g>
    </g>
</svg>
