<?xml version="1.0" encoding="UTF-8" standalone="no"?>
<!DOCTYPE svg PUBLIC "-//W3C//DTD SVG 1.1//EN" "http://www.w3.org/Graphics/SVG/1.1/DTD/svg11.dtd">
<svg width="100%" height="100%" viewBox="0 0 269 297" version="1.1" xmlns="http://www.w3.org/2000/svg" xmlns:xlink="http://www.w3.org/1999/xlink" xml:space="preserve" xmlns:serif="http://www.serif.com/" style="fill-rule:evenodd;clip-rule:evenodd;stroke-linejoin:round;stroke-miterlimit:2;">
    <g transform="matrix(1,0,0,1,-2697.95,-4394.78)">
        <g transform="matrix(4.16667,0,0,4.16667,0,0)">
            <g transform="matrix(1,0,0,1,671.348,1054.7)">
                <path d="M0,4.724C-7.707,4.971 -15.871,4.759 -23.754,4.828C-23.936,2.198 -22.377,0.427 -19.83,0.164C-17.375,-0.09 -14.047,0.164 -10.922,0.164C-8.09,0.164 -4.234,-0.247 -2.439,0.482C-0.963,1.081 0.029,2.763 0,4.724" style="fill:rgb(26,23,27);"/>
            </g>
        </g>
        <g transform="matrix(4.16667,0,0,4.16667,0,0)">
            <g transform="matrix(1,0,0,1,659.26,1121.51)">
                <path d="M0,-54.364C-2.545,-56.839 -6.063,-54.734 -6.045,-52.138C-6.031,-49.817 -3.816,-48.321 -1.592,-48.958C-0.908,-49.152 -0.586,-49.763 0.105,-49.911C1.744,-50.263 4.473,-49.48 6.256,-50.124C6.379,-51.264 6.539,-53.286 6.148,-54.26C4.309,-54.504 2.016,-54.296 0,-54.364M-11.559,-58.925L11.982,-58.925C12.174,-51.983 12.088,-43.946 12.088,-36.444C12.088,-34.132 11.721,-31.113 12.406,-29.233C13.1,-27.33 14.801,-25.76 16.754,-25.309C17.971,-25.029 19.59,-25.204 21.207,-25.204L43.795,-25.204C46.127,-25.204 51.195,-25.68 52.172,-24.567C52.961,-23.665 52.508,-21.316 52.172,-19.796C51.131,-15.096 48.475,-12.115 46.232,-8.874C43.602,-5.066 41,-1.312 38.174,2.685C37.744,3.293 37.326,4.002 36.902,4.17C35.908,4.561 33.795,4.276 32.236,4.276L4.24,4.276C2.729,4.276 1.205,4.446 -0.213,4.064C-0.602,2.583 -0.426,1.021 -0.426,-0.389C-0.426,-5.198 -0.996,-8.808 -2.545,-12.161C-4.531,-16.454 -8.215,-19.242 -9.969,-23.295C-10.938,-25.533 -11.58,-28.165 -11.666,-30.93C-11.941,-39.731 -11.457,-49.694 -11.666,-58.606C-11.674,-58.757 -11.684,-58.907 -11.559,-58.925" style="fill:rgb(26,23,27);"/>
            </g>
        </g>
        <g transform="matrix(4.16667,0,0,4.16667,0,0)">
            <g transform="matrix(1,0,0,1,656.289,1071.62)">
                <path d="M0,-4.475C3.203,-4.986 3.289,-0.439 0.85,-0.022C-2.271,0.511 -2.914,-4.012 0,-4.475" style="fill:rgb(26,23,27);"/>
            </g>
        </g>
        <g transform="matrix(4.16667,0,0,4.16667,0,0)">
            <g transform="matrix(1,0,0,1,656.773,1070.87)">
                <path d="M0,-3.265C-0.128,-3.265 -0.263,-3.254 -0.404,-3.231C-1.564,-3.047 -1.908,-2.119 -1.85,-1.381C-1.777,-0.46 -1.066,0.464 0.282,0.235C1.211,0.077 1.636,-0.908 1.564,-1.753C1.502,-2.484 1.059,-3.265 0,-3.265M-0.13,1.272C-1.78,1.272 -2.746,-0.023 -2.847,-1.302C-2.942,-2.517 -2.269,-3.948 -0.562,-4.219C1.452,-4.537 2.447,-3.177 2.561,-1.837C2.67,-0.548 1.968,0.962 0.45,1.221C0.248,1.256 0.054,1.272 -0.13,1.272" style="fill:white;fill-rule:nonzero;"/>
            </g>
        </g>
        <g transform="matrix(4.16667,0,0,4.16667,0,0)">
            <g transform="matrix(1,0,0,1,659.789,1070.54)">
                <path d="M0,-2.332L4.666,-2.332C4.838,-1.777 4.838,-0.555 4.666,0L0.105,0C0.004,-0.646 0.326,-1.568 0,-2.332" style="fill:rgb(26,23,27);"/>
            </g>
        </g>
        <g transform="matrix(4.16667,0,0,4.16667,0,0)">
            <g transform="matrix(1,0,0,1,660.38,1068.71)">
                <path d="M0,1.332L3.667,1.332C3.716,0.934 3.716,0.398 3.667,-0L0.043,-0C0.079,0.353 0.05,0.702 0.023,1.024C0.015,1.13 0.006,1.233 0,1.332M4.443,2.332L-0.913,2.332L-0.979,1.909C-1.028,1.601 -1,1.266 -0.974,0.941C-0.937,0.504 -0.899,0.051 -1.051,-0.304L-1.348,-1L4.443,-1L4.553,-0.648C4.755,0.003 4.755,1.329 4.553,1.98L4.443,2.332Z" style="fill:white;fill-rule:nonzero;"/>
            </g>
        </g>
        <g transform="matrix(4.16667,0,0,4.16667,0,0)">
            <g transform="matrix(1,0,0,1,709.629,1088.35)">
                <path d="M0,4.902L-29.375,4.902C-29.434,2.848 -29.652,0.693 -27.783,0.341C-26.766,0.15 -25.42,0.341 -24.178,0.341L-6.469,0.341C-4.217,0.341 -0.891,0 -0.213,1.19C0.262,2.024 -0.135,4.073 0,4.902" style="fill:rgb(26,23,27);"/>
            </g>
        </g>
    </g>
</svg>
