<svg width="171" height="323" viewBox="0 0 171 323" fill="none" xmlns="http://www.w3.org/2000/svg">
<path d="M102.655 323C102.654 323 102.652 323 102.652 323C89.6915 323 63.4846 319.167 33.6002 293.497C33.5232 293.432 33.4487 293.363 33.3767 293.293C11.2222 271.7 0.707201 246.559 2.12669 218.568C3.69457 187.612 19.5337 154.01 49.2046 118.695C71.0998 92.6337 92.2237 75.7534 93.1116 75.0475C94.1178 74.2489 95.4033 73.8844 96.675 74.0322C97.9505 74.1807 99.1145 74.8321 99.9097 75.8418C101.437 77.781 103.071 79.8392 104.794 82.007C121.322 102.808 146.296 134.243 160.314 167.029C177.578 207.412 173.91 240.026 149.409 263.97C138.672 275.051 127.179 282.224 115.194 285.338V317.572C115.194 319.848 113.607 321.816 111.382 322.294C111.046 322.366 107.95 323 102.655 323ZM40.0089 286.267C67.4819 309.818 91.0447 313.338 102.653 313.338H102.654C103.736 313.338 104.699 313.307 105.534 313.259V286.962C104.068 287.077 102.597 287.135 101.127 287.135C85.1294 287.135 72.3891 280.449 64.7757 276.454C64.1571 276.13 63.5747 275.824 63.0319 275.543C55.3959 271.61 37.4191 254.417 33.738 228.972C31.4206 212.953 34.4267 188.34 61.9054 162.047C63.3017 160.709 65.3624 160.334 67.1407 161.094C68.9202 161.855 70.0736 163.602 70.0736 165.538V206.863L88.8788 219.091L104.345 208.169V165.538C104.345 163.802 105.276 162.199 106.784 161.34C108.293 160.481 110.146 160.496 111.638 161.381C112.833 162.089 140.928 179.043 142.765 206.202C143.911 223.129 134.637 239.79 115.195 255.742V275.282C124.608 272.295 133.774 266.231 142.516 257.198C142.548 257.164 142.581 257.132 142.613 257.099C164.314 235.927 167.2 207.707 151.432 170.827C137.926 139.236 113.437 108.414 97.2317 88.0181C96.6118 87.2377 96.0038 86.4717 95.4071 85.72C79.1252 99.684 14.8269 158.523 11.7719 219.078C10.5084 244.119 20.0096 266.724 40.0089 286.267ZM60.4133 177.639C46.5935 193.83 40.8392 210.59 43.2987 227.587C46.4695 249.512 62.3419 264.318 67.455 266.953C68.0185 267.246 68.6228 267.56 69.264 267.896C76.0878 271.478 87.5094 277.473 101.127 277.473C102.598 277.473 104.069 277.402 105.534 277.262V253.432C105.534 251.957 106.209 250.562 107.364 249.646C125.394 235.353 134.064 220.972 133.13 206.898C132.183 192.611 121.495 181.291 114.006 175.045V210.674C114.006 212.242 113.242 213.714 111.962 214.62L91.776 228.874C90.1618 230.014 88.0153 230.054 86.3585 228.978L62.6111 213.537C61.2411 212.646 60.4133 211.122 60.4133 209.487V177.639Z" fill="url(#paint0_linear_325_244)"/>
<path d="M0.498413 41.8647H4.35444H6.29559C8.71765 41.8647 10.5206 42.3707 11.7063 43.3819C12.892 44.3944 13.4861 45.7464 13.4861 47.438C13.4861 49.1297 12.8926 50.4855 11.7063 51.5055C10.52 52.5254 8.71765 53.0357 6.29559 53.0357H4.35444V59.4058H0.498413V41.8647ZM4.35444 45.2736V49.6268H6.29559C7.55634 49.6268 8.48939 49.4655 9.09537 49.1422C9.7001 48.8182 10.0028 48.2504 10.0028 47.438C10.0028 46.6257 9.7001 46.0616 9.09537 45.7464C8.48939 45.4312 7.55634 45.2736 6.29559 45.2736H4.35444Z" fill="#2AADDF"/>
<path d="M19.4565 41.8647H23.3138V55.9969H30.1547V59.4058H19.4565V41.8647Z" fill="#2AADDF"/>
<path d="M37.3452 44.1162C39.0537 42.417 41.1856 41.5659 43.7409 41.5659C46.2949 41.5659 48.4212 42.417 50.1215 44.1162C51.8219 45.8178 52.6718 47.9941 52.6718 50.6482C52.6718 53.301 51.8219 55.4792 50.1215 57.1777C48.4212 58.8793 46.2949 59.7279 43.7409 59.7279C41.1856 59.7279 39.0544 58.8793 37.3452 57.1777C35.638 55.4785 34.7825 53.301 34.7825 50.6482C34.7825 47.9941 35.638 45.8172 37.3452 44.1162ZM47.4218 46.891C46.4437 45.9129 45.2161 45.4226 43.7403 45.4226C42.2638 45.4226 41.0362 45.9122 40.0575 46.891C39.0781 47.869 38.5891 49.121 38.5891 50.6482C38.5891 52.1734 39.0775 53.4255 40.0575 54.4042C41.0355 55.3835 42.2631 55.8725 43.7403 55.8725C45.2155 55.8725 46.4431 55.3841 47.4218 54.4042C48.3999 53.4261 48.8902 52.1741 48.8902 50.6482C48.8902 49.1216 48.4005 47.8697 47.4218 46.891Z" fill="#2AADDF"/>
<path d="M58.6422 41.8647H62.9722L68.5455 51.0952L74.1676 41.8647H78.4976V59.4058H74.6404V48.1347L68.5455 58.0368L62.4994 48.1347V59.4058H58.6422V41.8647Z" fill="#2AADDF"/>
<path d="M84.8414 41.8647H89.9907C94.3208 41.8647 96.4852 43.5407 96.4852 46.8908C96.4852 47.6869 96.2688 48.3874 95.8379 48.9927C95.4071 49.5981 94.9255 50.0177 94.3952 50.2497C95.1413 50.4648 95.7754 50.9007 96.2982 51.5555C96.821 52.2102 97.0824 53.0101 97.0824 53.9569C97.0824 55.6817 96.5352 57.0212 95.4396 57.9743C94.3452 58.928 92.5291 59.4058 89.9907 59.4058H84.8414V41.8647ZM88.6975 45.2736V48.7069H89.9907C91.0695 48.7069 91.8362 48.5906 92.2933 48.3586C92.7492 48.1266 92.9775 47.6369 92.9775 46.8902C92.9775 46.2098 92.753 45.7702 92.3058 45.5713C91.8575 45.3724 91.087 45.273 89.9914 45.273L88.6975 45.2736ZM88.6975 52.1408V55.9969H89.9907C91.2027 55.9969 92.1064 55.848 92.7036 55.5485C93.3008 55.2501 93.5991 54.7192 93.5991 53.9569C93.5991 53.2265 93.2877 52.7418 92.6661 52.501C92.0444 52.2603 91.1527 52.1408 89.9914 52.1408H88.6975Z" fill="#2AADDF"/>
<path d="M103.053 59.4058V41.8647H106.91H115.195V45.2736H106.91V48.9064H114.374V52.3384H106.91V55.9969H115.195V59.4058H106.91H103.053Z" fill="#2AADDF"/>
<path d="M121.514 41.8647H125.371H127.312C129.733 41.8647 131.537 42.3707 132.723 43.3819C133.909 44.3944 134.501 45.7464 134.501 47.438C134.501 49.7269 133.515 51.3285 131.541 52.2396L135.174 59.4058H131.219L128.307 53.0101C128.092 53.027 127.76 53.0357 127.313 53.0357H125.372V59.4058H121.514V41.8647H121.514ZM125.371 45.2736V49.6268H127.312C128.572 49.6268 129.505 49.4655 130.111 49.1422C130.717 48.8189 131.019 48.2504 131.019 47.438C131.019 46.6257 130.717 46.0616 130.111 45.7464C129.505 45.4312 128.572 45.2736 127.312 45.2736H125.371Z" fill="#2AADDF"/>
<path d="M141.145 41.8647H145.001V59.4058H141.145V41.8647Z" fill="#2AADDF"/>
<path d="M151.32 59.4058V41.8647H155.177H163.462V45.2736H155.177V48.9064H162.642V52.3384H155.177V55.9969H163.462V59.4058H155.177H151.32Z" fill="#2AADDF"/>
<path d="M16.8231 7.63065C20.1256 7.63065 22.7116 8.86199 24.5802 11.3228L30.2817 6.83643C28.7864 4.81149 26.8621 3.23055 24.5101 2.09238C22.1575 0.955457 19.5953 0.385742 16.8224 0.385742C12.0246 0.385742 8.02162 1.98356 4.81222 5.17608C1.60345 8.36984 0 12.4591 0 17.444C0 22.43 1.60345 26.5181 4.81222 29.7106C8.02162 32.9043 12.0246 34.5009 16.8224 34.5009C19.5953 34.5009 22.1575 33.9318 24.5101 32.7955C26.8621 31.6586 28.7864 30.0608 30.2817 28.0052L24.5802 23.4713C22.649 25.9946 20.0631 27.2579 16.8231 27.2579C14.0496 27.2579 11.7444 26.338 9.90711 24.5C8.06789 22.662 7.14985 20.3107 7.14985 17.444C7.14985 14.5785 8.06789 12.2259 9.90711 10.3867C11.7444 8.55057 14.0496 7.63065 16.8231 7.63065Z" fill="#E96310"/>
<path d="M58.4589 0.948242L49.5318 16.5569L40.6534 0.948242H32.568L45.934 23.6142V33.8952H53.1308V23.6142L66.5431 0.948242H58.4589Z" fill="#E96310"/>
<path d="M84.8032 7.63065C88.1052 7.63065 90.6917 8.86074 92.5609 11.3228L98.2612 6.83643C96.7659 4.81149 94.8423 3.23055 92.4909 2.09238C90.1383 0.955457 87.5761 0.385742 84.8026 0.385742C80.0048 0.385742 76.0018 1.98356 72.7924 5.17608C69.5842 8.36984 67.9802 12.4591 67.9802 17.444C67.9802 22.43 69.5842 26.5181 72.7924 29.7106C76.0018 32.9043 80.0048 34.5009 84.8026 34.5009C87.5761 34.5009 90.1383 33.9318 92.4909 32.7955C94.8423 31.6586 96.7659 30.0608 98.2612 28.0052L92.5609 23.4713C90.6286 25.9946 88.0427 27.2579 84.8032 27.2579C82.0303 27.2579 79.7252 26.338 77.8873 24.5C76.0487 22.662 75.13 20.3107 75.13 17.444C75.13 14.5785 76.0487 12.2259 77.8873 10.3867C79.7252 8.55057 82.0303 7.63065 84.8032 7.63065Z" fill="#E96310"/>
<path d="M112.919 0.948242H105.676V33.8952H125.77V27.4927H112.919V0.948242Z" fill="#E96310"/>
<path d="M123.083 30.9607H108.949V3.76465H109.647V30.2622H123.083V30.9607Z" fill="white"/>
<path d="M158.875 4.95544C155.584 1.66849 151.453 0 146.594 0C141.738 0 137.603 1.66474 134.306 4.94668C131.002 8.23737 129.325 12.4411 129.325 17.4441C129.325 22.447 131.002 26.6526 134.307 29.9402C137.603 33.2234 141.738 34.8881 146.594 34.8881C151.454 34.8881 155.585 33.2196 158.875 29.9327C162.161 26.6445 163.828 22.4426 163.828 17.4434C163.828 12.4442 162.162 8.24363 158.875 4.95544ZM159.165 17.0957H148.714C148.658 16.7587 148.527 16.4472 148.336 16.1808L155.916 8.6007C158.013 10.8627 159.096 13.695 159.165 17.0957ZM147.842 15.6874C147.58 15.4979 147.276 15.3685 146.945 15.3122V4.66525C150.311 4.73842 153.137 5.88411 155.428 8.10105L147.842 15.6874ZM146.247 15.3072C145.902 15.361 145.584 15.4904 145.313 15.6868L137.737 8.11042C140.038 5.88598 142.876 4.73781 146.247 4.66464V15.3072ZM145.313 19.2026C145.585 19.3977 145.902 19.5297 146.247 19.5822V30.2247C142.876 30.1503 140.038 29.0034 137.737 26.779L145.313 19.2026ZM146.945 19.5785C147.276 19.5197 147.58 19.3915 147.842 19.202L155.428 26.7871C153.138 29.0053 150.311 30.1497 146.946 30.2241L146.945 19.5785ZM137.247 8.60883L144.819 16.1802C144.627 16.4466 144.497 16.758 144.442 17.0951H133.989C134.059 13.7 135.145 10.8702 137.247 8.60883ZM133.989 17.793H144.442C144.497 18.1313 144.627 18.4428 144.82 18.7092L137.247 26.2805C135.145 24.0198 134.059 21.1907 133.989 17.793ZM155.916 26.2893L148.336 18.7092C148.528 18.4428 148.659 18.1313 148.714 17.793H159.165C159.096 21.1944 158.013 24.0273 155.916 26.2893Z" fill="#E96310"/>
<path d="M84.4656 31.0954C80.6452 31.0954 77.412 29.8046 74.8537 27.2575C72.294 24.7122 70.997 21.4103 70.997 17.4448C70.997 13.4799 72.294 10.1786 74.8537 7.63086C77.4133 5.08435 80.6465 3.79297 84.4656 3.79297C86.67 3.79297 88.7381 4.25323 90.613 5.15877C91.4616 5.56901 92.2533 6.05993 92.9637 6.61713L92.5329 7.16809C91.8618 6.64028 91.1139 6.17751 90.309 5.7879C88.5305 4.92927 86.5637 4.49214 84.4656 4.49214C80.8378 4.49214 77.7698 5.71472 75.3458 8.12615C72.9244 10.5369 71.6955 13.6726 71.6955 17.4454C71.6955 21.2183 72.9244 24.3526 75.3458 26.7622C77.7691 29.1755 80.8366 30.3981 84.4656 30.3981C86.5631 30.3981 88.5305 29.9597 90.309 29.1023C91.0876 28.7246 91.8131 28.2768 92.4653 27.7684L92.895 28.3181C92.2039 28.8565 91.4366 29.3331 90.6136 29.7314C88.7381 30.6363 86.67 31.0954 84.4656 31.0954Z" fill="white"/>
<path d="M16.8268 31.0954C13.0064 31.0954 9.77326 29.8046 7.21425 27.2575C4.65523 24.7122 3.35822 21.4103 3.35822 17.4448C3.35822 13.4799 4.65523 10.1786 7.21425 7.63086C9.77388 5.08435 13.0077 3.79297 16.8268 3.79297C19.0312 3.79297 21.0993 4.25323 22.9742 5.15877C23.8228 5.56901 24.6139 6.05993 25.325 6.61713L24.8941 7.16809C24.2231 6.64028 23.4739 6.17751 22.6703 5.7879C20.8905 4.92927 18.9255 4.49214 16.8268 4.49214C13.199 4.49214 10.131 5.71472 7.70704 8.12615C5.28561 10.5369 4.05675 13.6726 4.05675 17.4454C4.05675 21.2183 5.28436 24.3526 7.70704 26.7622C10.1297 29.1755 13.1972 30.3981 16.8268 30.3981C18.9249 30.3981 20.8905 29.9609 22.6703 29.1023C23.4482 28.7246 24.1743 28.2768 24.8259 27.7684L25.2562 28.3181C24.5651 28.8565 23.7972 29.3331 22.9748 29.7314C21.0993 30.6363 19.0312 31.0954 16.8268 31.0954Z" fill="white"/>
<path d="M59.9842 3.85147L49.5499 22.1779L38.6404 3.85147L37.828 3.84521L49.2066 22.9678V30.9819H49.9051V22.9653L60.7978 3.84521L59.9842 3.85147Z" fill="white"/>
<defs>
<linearGradient id="paint0_linear_325_244" x1="124.771" y1="317.215" x2="39.5831" y2="95.3651" gradientUnits="userSpaceOnUse">
<stop stop-color="#219BD2"/>
<stop offset="0.0586" stop-color="#249CCF"/>
<stop offset="0.1023" stop-color="#2D9FC6"/>
<stop offset="0.1411" stop-color="#3EA3B7"/>
<stop offset="0.1771" stop-color="#54AAA1"/>
<stop offset="0.2112" stop-color="#72B386"/>
<stop offset="0.2438" stop-color="#96BE64"/>
<stop offset="0.2752" stop-color="#C1CA3B"/>
<stop offset="0.305" stop-color="#F1D90D"/>
<stop offset="0.3129" stop-color="#FFDD00"/>
<stop offset="0.3267" stop-color="#FED701"/>
<stop offset="0.4497" stop-color="#F5A705"/>
<stop offset="0.5582" stop-color="#EE8508"/>
<stop offset="0.6472" stop-color="#EA700A"/>
<stop offset="0.7055" stop-color="#E9680B"/>
<stop offset="0.9571" stop-color="#E85D10"/>
</linearGradient>
</defs>
</svg>
