<svg width="169" height="249" viewBox="0 0 169 249" fill="none" xmlns="http://www.w3.org/2000/svg">
<path d="M100.655 249C100.654 249 100.652 249 100.652 249C87.6916 249 61.4846 245.167 31.6002 219.497C31.5232 219.432 31.4487 219.363 31.3767 219.293C9.22218 197.7 -1.2928 172.559 0.126688 144.568C1.69457 113.612 17.5337 80.0104 47.2046 44.6945C69.0998 18.6337 90.2237 1.75345 91.1116 1.04755C92.1178 0.248943 93.4033 -0.115595 94.675 0.0322246C95.9505 0.180671 97.1145 0.832081 97.9097 1.84177C99.4369 3.78097 101.071 5.83917 102.794 8.00699C119.322 28.8076 144.296 60.2426 158.314 93.0286C175.578 133.412 171.91 166.026 147.409 189.97C136.672 201.051 125.179 208.224 113.194 211.338V243.572C113.194 245.848 111.607 247.816 109.382 248.294C109.046 248.366 105.95 249 100.655 249ZM38.0089 212.267C65.4819 235.818 89.0447 239.338 100.653 239.338H100.654C101.736 239.338 102.699 239.307 103.534 239.259V212.962C102.068 213.077 100.597 213.135 99.127 213.135C83.1294 213.135 70.3891 206.449 62.7757 202.454C62.1571 202.13 61.5747 201.824 61.0319 201.543C53.3959 197.61 35.4191 180.417 31.738 154.972C29.4206 138.953 32.4267 114.34 59.9054 88.0472C61.3017 86.7093 63.3624 86.3341 65.1407 87.0945C66.9202 87.8549 68.0736 89.6024 68.0736 91.5385V132.863L86.8788 145.091L102.345 134.169V91.5378C102.345 89.8016 103.276 88.1993 104.784 87.34C106.293 86.4806 108.146 86.4963 109.638 87.3807C110.833 88.0891 138.928 105.043 140.765 132.202C141.911 149.129 132.637 165.79 113.195 181.742V201.282C122.608 198.295 131.774 192.231 140.516 183.198C140.548 183.164 140.581 183.132 140.613 183.099C162.314 161.927 165.2 133.707 149.432 96.8274C135.926 65.2359 111.437 34.4142 95.2317 14.0181C94.6118 13.2377 94.0038 12.4717 93.4071 11.72C77.1252 25.684 12.8269 84.5233 9.77193 145.078C8.50836 170.119 18.0096 192.724 38.0089 212.267ZM58.4133 103.639C44.5935 119.83 38.8392 136.59 41.2987 153.587C44.4695 175.512 60.3419 190.318 65.455 192.953C66.0185 193.246 66.6228 193.56 67.264 193.896C74.0878 197.478 85.5094 203.473 99.127 203.473C100.598 203.473 102.069 203.402 103.534 203.262V179.432C103.534 177.957 104.209 176.562 105.364 175.646C123.394 161.353 132.064 146.972 131.13 132.898C130.183 118.611 119.495 107.291 112.006 101.045V136.674C112.006 138.242 111.242 139.714 109.962 140.62L89.776 154.874C88.1618 156.014 86.0153 156.054 84.3585 154.978L60.6111 139.537C59.2411 138.646 58.4133 137.122 58.4133 135.487V103.639Z" fill="url(#paint0_linear_139_309)"/>
<defs>
<linearGradient id="paint0_linear_139_309" x1="122.771" y1="243.215" x2="37.5831" y2="21.3651" gradientUnits="userSpaceOnUse">
<stop stop-color="#219BD2"/>
<stop offset="0.0586" stop-color="#249CCF"/>
<stop offset="0.1023" stop-color="#2D9FC6"/>
<stop offset="0.1411" stop-color="#3EA3B7"/>
<stop offset="0.1771" stop-color="#54AAA1"/>
<stop offset="0.2112" stop-color="#72B386"/>
<stop offset="0.2438" stop-color="#96BE64"/>
<stop offset="0.2752" stop-color="#C1CA3B"/>
<stop offset="0.305" stop-color="#F1D90D"/>
<stop offset="0.3129" stop-color="#FFDD00"/>
<stop offset="0.3267" stop-color="#FED701"/>
<stop offset="0.4497" stop-color="#F5A705"/>
<stop offset="0.5582" stop-color="#EE8508"/>
<stop offset="0.6472" stop-color="#EA700A"/>
<stop offset="0.7055" stop-color="#E9680B"/>
<stop offset="0.9571" stop-color="#E85D10"/>
</linearGradient>
</defs>
</svg>
