<?xml version="1.0" encoding="utf-8"?>
<!-- Generator: Adobe Illustrator 15.0.0, SVG Export Plug-In . SVG Version: 6.00 Build 0)  -->
<!DOCTYPE svg PUBLIC "-//W3C//DTD SVG 1.1//EN" "http://www.w3.org/Graphics/SVG/1.1/DTD/svg11.dtd">
<svg version="1.1" id="Calque_1" xmlns="http://www.w3.org/2000/svg" xmlns:xlink="http://www.w3.org/1999/xlink" x="0px" y="0px"
	 width="841.89px" height="408.189px" viewBox="0 0 841.89 408.189" enable-background="new 0 0 841.89 408.189"
	 xml:space="preserve">
<linearGradient id="SVGID_1_" gradientUnits="userSpaceOnUse" x1="195.7217" y1="355.5557" x2="78.738" y2="50.8028">
	<stop  offset="0" style="stop-color:#219BD2"/>
	<stop  offset="0.0586" style="stop-color:#249CCF"/>
	<stop  offset="0.1023" style="stop-color:#2D9FC6"/>
	<stop  offset="0.1411" style="stop-color:#3EA3B7"/>
	<stop  offset="0.1771" style="stop-color:#54AAA1"/>
	<stop  offset="0.2112" style="stop-color:#72B386"/>
	<stop  offset="0.2438" style="stop-color:#96BE64"/>
	<stop  offset="0.2752" style="stop-color:#C1CA3B"/>
	<stop  offset="0.305" style="stop-color:#F1D90D"/>
	<stop  offset="0.3129" style="stop-color:#FFDD00"/>
	<stop  offset="0.3267" style="stop-color:#FED701"/>
	<stop  offset="0.4497" style="stop-color:#F5A705"/>
	<stop  offset="0.5582" style="stop-color:#EE8508"/>
	<stop  offset="0.6472" style="stop-color:#EA700A"/>
	<stop  offset="0.7055" style="stop-color:#E9680B"/>
	<stop  offset="0.9571" style="stop-color:#E85D10"/>
</linearGradient>
<path fill="url(#SVGID_1_)" d="M165.333,363.504h-0.002c-17.81-0.003-53.818-5.268-94.88-40.526
	c-0.105-0.09-0.208-0.185-0.308-0.281c-30.44-29.661-44.887-64.193-42.938-102.639c2.155-42.521,23.918-88.676,64.686-137.184
	C121.976,47.076,151,23.89,152.221,22.921c1.383-1.097,3.147-1.599,4.896-1.395c1.753,0.205,3.352,1.099,4.444,2.485
	c2.098,2.663,4.345,5.49,6.712,8.468c22.707,28.572,57.024,71.75,76.284,116.783c23.723,55.47,18.682,100.267-14.984,133.155
	c-14.752,15.221-30.542,25.075-47.01,29.353v44.274c0,3.126-2.182,5.828-5.239,6.488
	C176.863,362.63,172.609,363.504,165.333,363.504z M79.256,313.044c37.749,32.35,70.124,37.184,86.075,37.186h0.001
	c1.485,0,2.809-0.043,3.958-0.109v-36.121c-2.015,0.159-4.038,0.24-6.057,0.24c-21.98,0-39.487-9.186-49.946-14.674
	c-0.85-0.445-1.649-0.863-2.397-1.25c-10.491-5.406-35.192-29.018-40.25-63.969c-3.185-22.003,0.945-55.812,38.703-91.927
	c1.919-1.837,4.751-2.353,7.194-1.307c2.444,1.044,4.029,3.446,4.029,6.103v56.763l25.84,16.795l21.25-15.001v-58.558
	c0-2.384,1.279-4.585,3.351-5.766c2.072-1.181,4.619-1.159,6.669,0.056c1.643,0.973,40.244,24.26,42.77,61.564
	c1.573,23.252-11.169,46.135-37.883,68.049v26.839c12.932-4.104,25.528-12.431,37.539-24.84c0.044-0.046,0.089-0.091,0.135-0.136
	c29.818-29.081,33.782-67.842,12.117-118.5c-18.557-43.392-52.206-85.729-74.472-113.745c-0.852-1.072-1.688-2.124-2.508-3.156
	C133.003,56.76,44.655,137.58,40.459,220.757C38.724,255.153,51.778,286.204,79.256,313.044z M107.293,163.837
	c-18.991,22.238-26.896,45.26-23.517,68.608c4.357,30.112,26.167,50.451,33.193,54.072c0.775,0.398,1.604,0.832,2.485,1.296
	c9.376,4.919,25.071,13.152,43.78,13.152c2.021,0,4.044-0.098,6.057-0.288v-32.733c0-2.028,0.926-3.943,2.515-5.202
	c24.772-19.63,36.683-39.386,35.403-58.716c-1.301-19.625-15.987-35.172-26.278-43.753v48.937c0,2.156-1.048,4.178-2.809,5.422
	l-27.734,19.58c-2.219,1.567-5.168,1.622-7.444,0.14l-32.629-21.208c-1.883-1.224-3.02-3.318-3.02-5.564V163.837z"/>
<g>
	<path fill="#2AADDF" d="M219.196,322.622h12.798h6.44c8.036,0,14.022,1.68,17.958,5.037c3.935,3.358,5.903,7.844,5.903,13.458
		c0,5.615-1.969,10.115-5.903,13.5c-3.937,3.386-9.922,5.078-17.958,5.078h-6.44v21.138h-12.798V322.622z M231.994,333.935v14.449
		h6.44c4.183,0,7.279-0.537,9.289-1.61c2.009-1.073,3.014-2.958,3.014-5.656c0-2.696-1.005-4.568-3.014-5.614
		c-2.01-1.045-5.106-1.568-9.289-1.568H231.994z"/>
	<path fill="#2AADDF" d="M287.231,322.622h12.798v46.899h22.706v11.312h-35.504V322.622z"/>
	<path fill="#2AADDF" d="M351.717,330.095c5.669-5.642,12.743-8.463,21.22-8.463c8.476,0,15.536,2.821,21.178,8.463
		c5.642,5.643,8.463,12.868,8.463,21.674c0,8.808-2.821,16.033-8.463,21.675c-5.643,5.643-12.702,8.463-21.178,8.463
		c-8.478,0-15.551-2.82-21.22-8.463c-5.67-5.642-8.504-12.867-8.504-21.675C343.212,342.963,346.047,335.737,351.717,330.095z
		 M385.157,339.301c-3.249-3.247-7.321-4.871-12.22-4.871c-4.9,0-8.973,1.624-12.22,4.871c-3.249,3.249-4.872,7.404-4.872,12.468
		c0,5.065,1.623,9.221,4.872,12.468c3.247,3.249,7.32,4.872,12.22,4.872c4.898,0,8.971-1.623,12.22-4.872
		c3.247-3.247,4.872-7.402,4.872-12.468C390.028,346.705,388.404,342.55,385.157,339.301z"/>
	<path fill="#2AADDF" d="M427.513,322.622h14.366l18.495,30.633l18.661-30.633h14.366v58.211h-12.798V343.43l-20.229,32.862
		l-20.063-32.862v37.403h-12.798V322.622z"/>
	<path fill="#2AADDF" d="M519.574,322.622h17.092c14.366,0,21.55,5.561,21.55,16.679c0,2.643-0.716,4.969-2.146,6.978
		c-1.433,2.01-3.028,3.399-4.789,4.17c2.477,0.716,4.582,2.16,6.316,4.334c1.733,2.176,2.601,4.831,2.601,7.969
		c0,5.726-1.816,10.17-5.449,13.334c-3.633,3.166-9.66,4.748-18.082,4.748h-17.092V322.622z M532.372,333.935v11.394h4.294
		c3.577,0,6.122-0.384,7.637-1.155c1.514-0.771,2.271-2.395,2.271-4.872c0-2.256-0.742-3.715-2.229-4.376
		c-1.486-0.66-4.046-0.99-7.679-0.99H532.372z M532.372,356.723v12.799h4.294c4.017,0,7.018-0.496,8.999-1.486
		c1.982-0.991,2.973-2.752,2.973-5.284c0-2.422-1.032-4.032-3.096-4.831c-2.064-0.797-5.024-1.197-8.876-1.197H532.372z"/>
	<path fill="#2AADDF" d="M585.132,380.833v-58.211h12.798h27.495v11.312H597.93v12.055H622.7v11.395H597.93v12.138h27.495v11.312
		H597.93H585.132z"/>
	<path fill="#2AADDF" d="M651.517,322.622h12.798h6.44c8.036,0,14.022,1.68,17.958,5.037c3.936,3.358,5.904,7.844,5.904,13.458
		c0,7.597-3.276,12.909-9.826,15.937l12.055,23.779h-13.128l-9.66-21.22c-0.716,0.055-1.816,0.082-3.303,0.082h-6.44v21.138h-12.798
		V322.622z M664.314,333.935v14.449h6.44c4.183,0,7.278-0.537,9.289-1.61c2.009-1.073,3.014-2.958,3.014-5.656
		c0-2.696-1.005-4.568-3.014-5.614c-2.011-1.045-5.106-1.568-9.289-1.568H664.314z"/>
	<path fill="#2AADDF" d="M721.78,322.622h12.798v58.211H721.78V322.622z"/>
	<path fill="#2AADDF" d="M760.669,380.833v-58.211h12.798h27.495v11.312h-27.495v12.055h24.771v11.395h-24.771v12.138h27.495v11.312
		h-27.495H760.669z"/>
</g>
<g>
	<g>
		<path fill="#E96310" d="M338.912,221.032c10.457,0,18.649,3.898,24.568,11.691l18.057-14.208
			c-4.736-6.413-10.83-11.419-18.279-15.022c-7.451-3.601-15.566-5.402-24.347-5.402c-15.195,0-27.875,5.057-38.037,15.169
			c-10.164,10.116-15.244,23.066-15.244,38.852c0,15.79,5.08,28.739,15.244,38.851c10.161,10.116,22.841,15.172,38.037,15.172
			c8.78,0,16.896-1.802,24.347-5.402c7.449-3.601,13.542-8.658,18.279-15.17l-18.057-14.357
			c-6.119,7.993-14.308,11.988-24.568,11.988c-8.784,0-16.084-2.91-21.904-8.733c-5.823-5.819-8.732-13.268-8.732-22.348
			c0-9.077,2.91-16.525,8.732-22.348C322.828,223.943,330.128,221.032,338.912,221.032z"/>
	</g>
	<g>
		<polygon fill="#E96310" points="470.773,199.867 442.503,249.301 414.382,199.867 388.778,199.867 431.107,271.649 
			431.107,304.211 453.899,304.211 453.899,271.649 496.377,199.867 		"/>
	</g>
	<g>
		<path fill="#E96310" d="M554.207,221.032c10.46,0,18.648,3.899,24.57,11.692l18.053-14.208
			c-4.734-6.413-10.826-11.419-18.273-15.022c-7.452-3.601-15.566-5.402-24.35-5.402c-15.193,0-27.873,5.057-38.035,15.169
			c-10.163,10.116-15.243,23.066-15.243,38.852c0,15.79,5.08,28.739,15.243,38.851c10.162,10.116,22.842,15.172,38.035,15.172
			c8.783,0,16.897-1.802,24.35-5.402c7.447-3.601,13.539-8.658,18.273-15.17l-18.053-14.357c-6.12,7.993-14.307,11.988-24.57,11.988
			c-8.781,0-16.084-2.91-21.902-8.733c-5.824-5.819-8.733-13.268-8.733-22.348c0-9.077,2.909-16.525,8.733-22.348
			C538.123,223.943,545.426,221.032,554.207,221.032z"/>
	</g>
	<g>
		<polygon fill="#E96310" points="643.252,199.867 620.312,199.867 620.312,304.211 683.953,304.211 683.953,283.933 
			643.252,283.933 		"/>
	</g>
	<polygon fill="#FFFFFF" points="675.441,294.92 630.678,294.92 630.678,208.789 632.89,208.789 632.89,292.708 675.441,292.708 	
		"/>
	<path fill="#E96310" d="M788.794,212.56c-10.419-10.415-23.502-15.694-38.891-15.694c-15.378,0-28.474,5.271-38.918,15.669
		c-10.466,10.417-15.774,23.735-15.774,39.577c0,15.848,5.31,29.166,15.777,39.58c10.438,10.396,23.533,15.668,38.915,15.668
		c15.393,0,28.476-5.281,38.891-15.694c10.411-10.41,15.691-23.718,15.691-39.554C804.485,236.281,799.208,222.975,788.794,212.56z
		 M789.715,251.006h-33.102c-0.175-1.07-0.588-2.054-1.196-2.898l24.009-24.009C786.066,231.269,789.494,240.237,789.715,251.006z
		 M753.852,246.546c-0.826-0.598-1.788-1.01-2.837-1.188v-33.719c10.659,0.235,19.612,3.862,26.863,10.883L753.852,246.546z
		 M748.803,245.344c-1.092,0.169-2.097,0.582-2.955,1.202L721.85,222.55c7.288-7.042,16.275-10.679,26.953-10.913V245.344z
		 M745.848,257.681c0.858,0.619,1.863,1.032,2.955,1.2v33.708c-10.678-0.235-19.663-3.87-26.953-10.914L745.848,257.681z
		 M751.015,258.87c1.049-0.183,2.011-0.594,2.839-1.189l24.024,24.021c-7.251,7.023-16.204,10.651-26.863,10.887V258.87z
		 M720.3,224.127l23.983,23.983c-0.608,0.842-1.021,1.826-1.195,2.896h-33.105C710.205,240.25,713.642,231.291,720.3,224.127z
		 M709.982,253.217h33.105c0.175,1.071,0.586,2.054,1.195,2.898l-23.982,23.982C713.642,272.937,710.205,263.977,709.982,253.217z
		 M779.426,280.125l-24.008-24.009c0.608-0.844,1.021-1.826,1.195-2.898h33.102C789.494,263.987,786.066,272.959,779.426,280.125z"
		/>
	<path fill="#FFFFFF" d="M553.137,295.346c-12.098,0-22.339-4.089-30.44-12.154c-8.103-8.062-12.214-18.519-12.214-31.08
		c0-12.556,4.111-23.013,12.214-31.082c8.104-8.063,18.347-12.15,30.44-12.15c6.982,0,13.533,1.455,19.47,4.323
		c2.69,1.301,5.196,2.855,7.445,4.617l-1.364,1.743c-2.126-1.667-4.495-3.137-7.044-4.369c-5.634-2.722-11.861-4.103-18.507-4.103
		c-11.487,0-21.205,3.871-28.881,11.507c-7.67,7.635-11.561,17.566-11.561,29.513c0,11.951,3.89,21.879,11.561,29.513
		c7.673,7.635,17.39,11.509,28.881,11.509c6.646,0,12.873-1.382,18.507-4.104c2.467-1.192,4.764-2.612,6.831-4.225l1.359,1.745
		c-2.189,1.707-4.622,3.212-7.228,4.474C566.67,293.892,560.119,295.346,553.137,295.346z"/>
	<path fill="#FFFFFF" d="M338.922,295.346c-12.098,0-22.34-4.089-30.443-12.154c-8.104-8.062-12.212-18.519-12.212-31.08
		c0-12.556,4.109-23.013,12.212-31.082c8.106-8.063,18.348-12.15,30.443-12.15c6.981,0,13.531,1.455,19.468,4.323
		c2.691,1.301,5.196,2.855,7.446,4.617l-1.365,1.743c-2.126-1.667-4.495-3.137-7.043-4.369c-5.633-2.722-11.86-4.103-18.505-4.103
		c-11.489,0-21.207,3.871-28.882,11.507c-7.671,7.635-11.561,17.566-11.561,29.513c0,11.951,3.889,21.879,11.561,29.513
		c7.672,7.635,17.39,11.509,28.882,11.509c6.645,0,12.872-1.382,18.506-4.104c2.465-1.192,4.763-2.612,6.829-4.225l1.36,1.745
		c-2.189,1.707-4.62,3.212-7.227,4.474C352.454,293.892,345.904,295.346,338.922,295.346z"/>
	<polygon fill="#FFFFFF" points="475.606,209.062 442.557,267.105 408.01,209.062 405.435,209.044 441.472,269.607 441.472,294.988 
		443.684,294.988 443.684,269.596 478.183,209.044 	"/>
</g>
</svg>
